<svg xmlns="http://www.w3.org/2000/svg" height="1200" width="1600" xml:space="preserve">
    <path style="fill:#fffbe9;fill-opacity:1;fill-rule:nonzero;stroke:none" d="M11166.2 1835.62c-67-439.49-248.7-859.448-497.2-1240.491-45.5-69.859-93.3-138.43-143.1-205.547H1571.06c-45.04 66.129-88.63 134.867-130.5 205.547-251.8 425.241-441.177 921.131-511.9 1344.361-117.918 705.89 42.074 1341.39 523.55 1893.86 267.88 307.36 599.18 461.12 962.53 630.06-573.45 1678.86 1188.76 3160.73 2742.39 3639.63C7293.97 8761.68 10740.2 8294.05 10853 5678.4c28.5-659.98-100.7-1271.63-556-1788.21 9.2 2.34 16.8 17.03 23.8 23 715.9-386.04 956.9-1346.87 845.4-2077.57" transform="matrix(.13333 0 0 -.13333 0 1200)"/>
    <path style="fill:#545454;fill-opacity:1;fill-rule:nonzero;stroke:none" d="M728.926 389.582h10542.2v205.547H728.926z" transform="matrix(.13333 0 0 -.13333 0 1200)"/>
    <path style="fill:#92a32b;fill-opacity:1;fill-rule:nonzero;stroke:none" d="m3741.8 4933.72-386.55-61.49c64.36-138.3 41.6-290.91 9.93-428.94 134.23-4.42 270.72-59.28 401.45-26.36 64.52 159.02 32.66 356.36-24.83 516.79" transform="matrix(.13333 0 0 -.13333 0 1200)"/>
    <path style="fill:#bee41b;fill-opacity:1;fill-rule:nonzero;stroke:none" d="m3759.37 4977.65-386.54-61.49c64.35-138.3 41.58-290.92 9.91-428.94 134.24-4.43 270.73-59.28 401.46-26.36 64.52 159.02 32.65 356.35-24.83 516.79" transform="matrix(.13333 0 0 -.13333 0 1200)"/>
    <path style="fill:#92a32b;fill-opacity:1;fill-rule:nonzero;stroke:none" d="M3472.8 4802.36c74.16 20.37 149.54 30.29 226.43 30.49 9.44.03 9.44 14.67 0 14.64-78.15-.21-154.93-10.3-230.32-31.01-9.1-2.5-5.23-16.62 3.89-14.12M3490.36 4745.27c91.85 25.91 186.83 35.53 281.08 48.31 9.33 1.27 5.35 15.37-3.88 14.12-94.27-12.79-189.25-22.41-281.09-48.31-9.07-2.56-5.21-16.68 3.89-14.12M3475.24 4687.92c88.16 5.29 171.01 38.98 256.68 57.35 9.23 1.98 5.32 16.09-3.89 14.12-84.32-18.09-166.05-51.63-252.79-56.83-9.38-.57-9.43-15.21 0-14.64M3516.72 4644.26c90.6 22.62 181.46 44.25 272.29 65.88 9.18 2.18 5.29 16.3-3.89 14.11-90.84-21.63-181.69-43.24-272.3-65.88-9.15-2.28-5.26-16.4 3.9-14.11M7994.53 7400.17l350.52-116.94c-81.29-118.88-83.64-264.53-75.45-397.98-125.71 16.6-261.29-13.42-377.97 37.43-35.56 158.07 24.6 336.93 102.9 477.49" transform="matrix(.13333 0 0 -.13333 0 1200)"/>
    <path style="fill:#fde427;fill-opacity:1;fill-rule:nonzero;stroke:none" d="m7984.94 7443.79 350.53-116.95c-81.29-118.86-83.64-264.53-75.46-397.97-125.7 16.61-261.29-13.41-377.97 37.43-35.55 158.07 24.6 336.94 102.9 477.49" transform="matrix(.13333 0 0 -.13333 0 1200)"/>
    <path style="fill:#92a32b;fill-opacity:1;fill-rule:nonzero;stroke:none" d="M8224.79 7236.29c-65.93 30.43-134.61 51.3-206.19 63.35-8.79 1.48-6.53 15.12 2.26 13.64 72.75-12.25 142.71-33.51 209.74-64.43 8.07-3.73 2.31-16.29-5.81-12.56M8199.61 7185.83c-81.53 38.31-168.51 61.93-254.34 88.39-8.47 2.62-2.58 15.14 5.81 12.55 85.82-26.46 172.8-50.08 254.33-88.39 8.06-3.78 2.29-16.34-5.8-12.55M8204.85 7130.08c-81.3 18.53-153.26 62.7-230.21 93.04-8.29 3.27-2.46 15.81 5.8 12.55 75.74-29.86 146.68-73.72 226.67-91.95 8.65-1.98 6.43-15.62-2.26-13.64M8159.47 7095.82c-80.88 35.06-162.16 69.22-243.43 103.39-8.22 3.46-2.41 16 5.81 12.55 81.27-34.17 162.54-68.33 243.42-103.4 8.19-3.54 2.39-16.08-5.8-12.54" transform="matrix(.13333 0 0 -.13333 0 1200)"/>
    <path style="fill:#16b1b5;fill-opacity:1;fill-rule:nonzero;stroke:none" d="m3461.21 6680.56-386.54-61.49c64.35-138.3 41.59-290.91 9.91-428.94 134.24-4.43 270.72-59.28 401.46-26.35 64.53 159.01 32.65 356.35-24.83 516.78" transform="matrix(.13333 0 0 -.13333 0 1200)"/>
    <path style="fill:#46f2f2;fill-opacity:1;fill-rule:nonzero;stroke:none" d="M3478.78 6724.49 3092.24 6663c64.35-138.3 41.59-290.92 9.91-428.94 134.25-4.43 270.72-59.28 401.45-26.36-3.42 149.89 8.28 343.14-24.82 516.79" transform="matrix(.13333 0 0 -.13333 0 1200)"/>
    <path style="fill:#16b1b5;fill-opacity:1;fill-rule:nonzero;stroke:none" d="M3213.55 6525.78c57.08 20.37 115.09 30.29 174.27 30.48 7.28.03 7.28 14.67 0 14.64-60.14-.2-119.25-10.3-177.27-31-7-2.5-4.03-16.62 3-14.12M3227.06 6468.69c70.69 25.9 143.8 35.52 216.35 48.31 7.17 1.26 4.1 15.36-3 14.12-72.55-12.79-145.66-22.41-216.34-48.32-6.98-2.55-4.01-16.68 2.99-14.11M3215.43 6411.33c67.84 5.29 131.61 38.98 197.56 57.36 7.1 1.98 4.08 16.09-3.01 14.11-64.89-18.08-127.79-51.62-194.55-56.83-7.23-.56-7.26-15.2 0-14.64M3247.35 6367.67c69.73 22.63 139.65 44.25 209.57 65.88 7.08 2.19 4.08 16.3-2.99 14.12-69.92-21.64-139.85-43.26-209.58-65.88-7.05-2.29-4.06-16.41 3-14.12" transform="matrix(.13333 0 0 -.13333 0 1200)"/>
    <path style="fill:#92a32b;fill-opacity:1;fill-rule:nonzero;stroke:none" d="m4332.82 6672.88-386.54-61.5c64.35-138.29 41.58-290.91 9.91-428.93 134.24-4.43 270.72-59.29 401.46-26.36 64.53 159.02 32.65 356.35-24.83 516.79" transform="matrix(.13333 0 0 -.13333 0 1200)"/>
    <path style="fill:#bee41b;fill-opacity:1;fill-rule:nonzero;stroke:none" d="m4350.39 6716.8-386.54-61.49c64.34-138.29 41.58-290.92 9.91-428.94 134.24-4.43 270.72-59.29 401.45-26.36 64.54 159.02 32.66 356.35-24.82 516.79" transform="matrix(.13333 0 0 -.13333 0 1200)"/>
    <path style="fill:#92a32b;fill-opacity:1;fill-rule:nonzero;stroke:none" d="M4063.81 6541.52c74.18 20.36 149.55 30.28 226.44 30.48 9.45.03 9.45 14.67 0 14.64-78.15-.2-154.94-10.3-230.33-31.01-9.08-2.49-5.22-16.62 3.89-14.11M4081.39 6484.42c91.83 25.91 186.81 35.53 281.07 48.31 9.33 1.27 5.34 15.37-3.89 14.12-94.26-12.78-189.24-22.4-281.08-48.31-9.07-2.56-5.21-16.68 3.9-14.12M4066.26 6427.07c88.15 5.29 171.01 38.97 256.68 57.35 9.23 1.99 5.31 16.1-3.9 14.12-84.3-18.09-166.04-51.63-252.78-56.83-9.38-.56-9.43-15.21 0-14.64M4107.73 6383.41c90.61 22.63 181.46 44.25 272.3 65.88 9.19 2.18 5.29 16.3-3.89 14.12-90.84-21.63-181.7-43.25-272.29-65.88-9.16-2.29-5.28-16.41 3.88-14.12" transform="matrix(.13333 0 0 -.13333 0 1200)"/>
    <path style="fill:#d3b81a;fill-opacity:1;fill-rule:nonzero;stroke:none" d="m2999.65 5332.59-333.83-17.57c43.89-140.35-11.04-303.71 45.45-446.7 92.55 11.26 214.61 4.13 304.62 35.34 6.87 129.38 25.85 309.02-16.24 428.93" transform="matrix(.13333 0 0 -.13333 0 1200)"/>
    <path style="fill:#fde427;fill-opacity:1;fill-rule:nonzero;stroke:none" d="m3026.01 5367.73-333.84-17.57c43.89-140.35-11.04-303.71 45.46-446.71 92.54 11.27 214.61 4.14 304.62 35.34 6.87 129.39 25.84 309.03-16.24 428.94" transform="matrix(.13333 0 0 -.13333 0 1200)"/>
    <path style="fill:#d3b81a;fill-opacity:1;fill-rule:nonzero;stroke:none" d="M2760.2 5210.87c19.47-8.28 47.41.31 67.09 3.94 30.05 5.56 59.94 13.43 90.31 17.03 9.26 1.09 9.37 15.74 0 14.63-26.84-3.17-53.29-9.5-79.77-14.76-13.68-2.71-27.39-5.26-41.18-7.25-7.96-1.14-21.26-4.26-29.07-.94-8.59 3.65-16.05-8.95-7.38-12.65M2741.92 5157.18c82.75 9.48 163.42 30.74 243.51 52.96 9.08 2.52 5.21 16.65-3.9 14.11-78.76-21.84-158.22-43.11-239.61-52.44-9.26-1.06-9.36-15.71 0-14.63M2768.28 5117.65c45.38 6.09 89.14 20.93 133.7 31 9.21 2.09 5.31 16.2-3.89 14.12-43.22-9.77-85.8-24.58-129.81-30.48-9.22-1.24-9.33-15.9 0-14.64M2779.52 5094.92c5.73-9.14 19.3-8.02 28.57-7.38 19.29 1.33 38.5 5.69 57.31 9.97 40.44 9.21 80.65 20.52 120.03 33.57 8.92 2.96 5.1 17.1-3.9 14.12-33.07-10.97-66.74-20.39-100.53-28.88-19.16-4.83-38.48-9.22-58-12.35-4.42-.7-28.75-4.98-30.83-1.66-5 7.98-17.67.64-12.65-7.39M2792.7 5080.35c-4.51-7.08-8.86-7.8-9.78-16.87-.4-3.96 3.63-7.34 7.32-7.32 48.8.33 96.97 8.81 142.48 26.61 8.7 3.4 4.92 17.57-3.89 14.12-44.36-17.35-91-25.77-138.59-26.09l7.32-7.32c.2 2.04 6.53 7.52 7.78 9.48 5.09 7.99-7.59 15.33-12.64 7.39M2839.25 5039.59c24.32-16.26 59.63-9.97 87.14-9.78 9.43.06 9.44 14.71 0 14.64-24.59-.17-58.12-6.68-79.75 7.78-7.88 5.27-15.19-7.42-7.39-12.64M9451.2 6028.13l-333.83-17.56c43.9-140.36-11.03-303.72 45.46-446.71 92.54 11.26 214.61 4.13 304.62 35.34 6.87 129.38 25.84 309.02-16.25 428.93" transform="matrix(.13333 0 0 -.13333 0 1200)"/>
    <path style="fill:#fde427;fill-opacity:1;fill-rule:nonzero;stroke:none" d="m9477.57 6063.28-333.84-17.58c43.9-140.34-11.03-303.71 45.46-446.71 92.54 11.27 214.61 4.14 304.62 35.35 6.86 129.39 25.84 309.02-16.24 428.94" transform="matrix(.13333 0 0 -.13333 0 1200)"/>
    <path style="fill:#d3b81a;fill-opacity:1;fill-rule:nonzero;stroke:none" d="M9211.75 5906.42c19.48-8.29 47.41.3 67.1 3.94 30.05 5.55 59.93 13.42 90.31 17.02 9.26 1.1 9.37 15.74 0 14.64-26.85-3.18-53.29-9.5-79.78-14.76-13.68-2.72-27.38-5.27-41.18-7.26-7.96-1.14-21.25-4.26-29.06-.94-8.58 3.65-16.04-8.95-7.39-12.64M9193.48 5852.71c82.74 9.49 163.42 30.76 243.51 52.97 9.08 2.52 5.22 16.65-3.89 14.12-78.76-21.85-158.23-43.11-239.62-52.44-9.26-1.07-9.37-15.72 0-14.65M9219.83 5813.19c45.38 6.09 89.14 20.93 133.71 31 9.21 2.08 5.3 16.2-3.89 14.13-43.22-9.78-85.81-24.58-129.82-30.49-9.2-1.23-9.32-15.89 0-14.64M9231.08 5790.46c5.74-9.14 19.29-8.02 28.56-7.38 19.31 1.33 38.5 5.69 57.32 9.98 40.44 9.21 80.66 20.51 120.03 33.57 8.91 2.95 5.09 17.09-3.89 14.11-33.09-10.96-66.75-20.38-100.54-28.88-19.17-4.82-38.49-9.21-58.01-12.34-4.4-.71-28.74-4.98-30.83-1.67-4.99 7.98-17.67.64-12.64-7.39M9244.26 5775.89c-4.5-7.07-8.86-7.79-9.79-16.87-.39-3.96 3.65-7.35 7.33-7.32 48.81.33 96.97 8.81 142.48 26.62 8.69 3.39 4.92 17.56-3.89 14.11-44.36-17.35-91-25.76-138.59-26.09 2.44-2.44 4.87-4.88 7.31-7.32.22 2.04 6.54 7.52 7.79 9.48 5.09 7.99-7.58 15.33-12.64 7.39M9290.8 5735.14c24.34-16.27 59.64-9.98 87.15-9.79 9.42.07 9.43 14.71 0 14.64-24.59-.17-58.13-6.67-79.76 7.79-7.87 5.26-15.19-7.43-7.39-12.64M5958.71 5848.2l-333.84-17.57c43.9-140.35-11.03-303.72 45.46-446.71 92.54 11.26 214.61 4.14 304.62 35.34 6.88 129.39 25.84 309.02-16.24 428.94" transform="matrix(.13333 0 0 -.13333 0 1200)"/>
    <path style="fill:#fde427;fill-opacity:1;fill-rule:nonzero;stroke:none" d="m5985.07 5883.34-333.84-17.57c43.9-140.35-11.03-303.72 45.46-446.71 92.54 11.27 214.61 4.14 304.62 35.34 6.87 129.38 25.84 309.02-16.24 428.94" transform="matrix(.13333 0 0 -.13333 0 1200)"/>
    <path style="fill:#d3b81a;fill-opacity:1;fill-rule:nonzero;stroke:none" d="M5719.25 5726.48c19.48-8.29 47.42.31 67.1 3.94 30.06 5.56 59.93 13.43 90.31 17.02 9.26 1.1 9.37 15.75 0 14.64-26.85-3.18-53.29-9.5-79.78-14.76-13.67-2.72-27.38-5.27-41.18-7.25-7.96-1.14-21.25-4.27-29.06-.94-8.58 3.65-16.04-8.96-7.39-12.65M5700.99 5672.78c82.73 9.49 163.41 30.75 243.49 52.96 9.09 2.53 5.23 16.65-3.88 14.12-78.76-21.85-158.23-43.11-239.61-52.44-9.27-1.06-9.37-15.71 0-14.64M5727.33 5633.25c45.38 6.1 89.14 20.93 133.71 31.01 9.2 2.08 5.3 16.19-3.89 14.11-43.21-9.76-85.8-24.57-129.82-30.47-9.2-1.24-9.32-15.9 0-14.65M5738.58 5610.53c5.73-9.14 19.29-8.02 28.56-7.38 19.31 1.33 38.5 5.68 57.32 9.97 40.44 9.21 80.66 20.52 120.02 33.57 8.93 2.96 5.1 17.1-3.88 14.12-33.09-10.97-66.75-20.39-100.54-28.89-19.17-4.82-38.49-9.21-58.01-12.34-4.4-.71-28.74-4.99-30.82-1.66-5 7.97-17.68.63-12.65-7.39M5751.76 5595.96c-4.5-7.08-8.86-7.8-9.79-16.87-.4-3.96 3.65-7.35 7.33-7.32 48.81.32 96.97 8.81 142.48 26.61 8.69 3.4 4.92 17.56-3.89 14.12-44.36-17.36-91-25.77-138.59-26.09l7.32-7.32c.21 2.04 6.52 7.51 7.78 9.48 5.09 7.99-7.59 15.33-12.64 7.39M5798.3 5555.2c24.34-16.26 59.64-9.97 87.15-9.78 9.43.06 9.44 14.7 0 14.63-24.59-.16-58.13-6.67-79.76 7.79-7.87 5.27-15.19-7.42-7.39-12.64" transform="matrix(.13333 0 0 -.13333 0 1200)"/>
    <path style="fill:#aa3c6e;fill-opacity:1;fill-rule:nonzero;stroke:none" d="M3800.01 5271.86c-44.38 120.34-83.97 244.51-114.79 373.81-73.32-93.2-345.17-106.07-345.17-106.07 58.86-128.43 114.94-293.38 115-431.44 116.29 41.08 236.25 101.96 344.96 163.7" transform="matrix(.13333 0 0 -.13333 0 1200)"/>
    <path style="fill:#ff5593;fill-opacity:1;fill-rule:nonzero;stroke:none" d="M3808.03 5310.32c-44.37 120.34-83.96 244.51-114.79 373.81-73.33-93.2-345.17-106.07-345.17-106.07 58.85-128.43 114.95-293.38 115.01-431.45 116.27 41.09 236.24 101.97 344.95 163.71" transform="matrix(.13333 0 0 -.13333 0 1200)"/>
    <path style="fill:#aa3c6e;fill-opacity:1;fill-rule:nonzero;stroke:none" d="M3488.59 5484.68c27.08-9.93 58.84 1.83 84.03 12.05 30.77 12.48 59.83 28.95 88.11 46.23 8.05 4.91.73 17.59-7.36 12.66-24.4-14.9-49.32-28.92-75.35-40.76-24.48-11.13-58.45-25.99-85.51-16.08-8.89 3.27-12.71-10.88-3.92-14.1M3509.93 5425.95c31.72 13.86 65.86 21.43 97.85 34.64 8.6 3.54 4.97 17.74-3.73 14.15-33.22-13.71-68.54-21.74-101.49-36.13-8.63-3.77-1.19-16.4 7.37-12.66M3504.52 5407.12c37.77-15.88 81.54 7.01 116.48 20.61 8.69 3.39 5.04 17.58-3.74 14.16-32.32-12.58-73.93-35.33-108.82-20.66-8.7 3.65-12.49-10.51-3.92-14.11M3488.75 5334.06c58.35 34.06 124.59 50.93 186.8 76.27 8.62 3.51 5 17.72-3.73 14.16-63.4-25.83-130.95-43.04-190.43-77.77-8.15-4.76-.82-17.43 7.36-12.66M3528.99 5294.44c40.61 15.68 81.26 31.23 120.48 50.23 8.49 4.12 1.09 16.76-7.37 12.66-38.03-18.43-77.45-33.53-116.85-48.73-8.71-3.36-5.06-17.55 3.74-14.16M3544.01 5268.83c14.5-6.22 34.72 5.79 47.62 11.59 22.53 10.14 44.42 21.97 65.68 34.53 8.12 4.79.78 17.46-7.36 12.65-17.18-10.14-34.79-19.55-52.68-28.37-9.5-4.67-19.13-9.09-29.02-12.88-3.4-1.3-14.24-6-16.86-4.87-8.57 3.68-16.05-8.93-7.38-12.65" transform="matrix(.13333 0 0 -.13333 0 1200)"/>
    <path style="fill:#73cdc0;fill-opacity:1;fill-rule:nonzero;stroke:none" d="M3520.07 6316.24c5.68 77.94-3.48 158.97-21.25 236.48-3.37 57.89-9.38 115.84-20.04 171.77l-24.14-3.84c67.56 15.73 135.82 40.96 167.35 81.03 30.82-129.29 70.42-253.46 114.79-373.8-68.98-39.17-142.48-77.99-216.71-111.64m-241.86 376.34c-.47 1.02-.93 2.03-1.39 3.04 0 0 15.5.73 40.1 3.12l-38.71-6.16" transform="matrix(.13333 0 0 -.13333 0 1200)"/>
    <path style="fill:#0a9195;fill-opacity:1;fill-rule:nonzero;stroke:none" d="M3502.89 6308.55c.14 77.01.8 160.52-4.07 244.17 17.77-77.51 26.93-158.54 21.25-236.48-5.72-2.59-11.45-5.16-17.18-7.69" transform="matrix(.13333 0 0 -.13333 0 1200)"/>
    <path style="fill:#20c6c8;fill-opacity:1;fill-rule:nonzero;stroke:none" d="M3391.83 6264.17c-.02 45.83-6.21 94.61-16.63 144.04 27.23 8.48 54.48 16.91 81.72 25.34 6.57 2.03 4.45 14.35-1.54 14.35-.46 0-.94-.07-1.45-.23-27.27-8.44-54.54-16.88-81.81-25.37-2.31 10.23-4.8 20.47-7.44 30.71 16.04 5.72 32.1 11.16 48.31 15.68 6.63 1.85 4.43 14.3-1.68 14.3-.42 0-.87-.06-1.33-.19-16.41-4.57-32.7-10.14-48.95-15.98-3.1 11.42-6.38 22.81-9.81 34.17 30.68 5.75 61.48 10.6 92.19 16.01 6.86 1.21 4.34 14.2-2.12 14.2-.29 0-.58-.03-.88-.08-31.14-5.49-62.37-10.39-93.48-16.25-4.07 12.91-8.33 25.76-12.76 38.5a529.42 529.42 0 0 0 53.65 2.89c7.27.03 7.28 14.64.02 14.64h-.02c-19.66-.06-39.2-1.19-58.64-3.39-15.72 43.81-33.2 86.09-50.97 125.07l38.71 6.16c34.11 3.31 85.7 9.79 137.72 21.91l24.14 3.84c10.66-55.93 16.67-113.88 20.04-171.77 4.87-83.65 4.21-167.16 4.07-244.17-37.07-16.37-74.25-31.37-111.06-44.38" transform="matrix(.13333 0 0 -.13333 0 1200)"/>
    <path style="fill:#0a9195;fill-opacity:1;fill-rule:nonzero;stroke:none" d="M3334.17 6553.37c-1.64 4.73-3.3 9.44-4.99 14.14 19.44 2.2 38.98 3.33 58.64 3.39h.02c7.26 0 7.25-14.61-.02-14.64a529.42 529.42 0 0 1-53.65-2.89M3351.22 6500.99a1310.7 1310.7 0 0 1-4.29 13.88c31.11 5.86 62.34 10.76 93.48 16.25.3.05.59.08.88.08 6.46 0 8.98-12.99 2.12-14.2-30.71-5.41-61.51-10.26-92.19-16.01M3364.68 6453.01c-1.18 4.6-2.41 9.22-3.65 13.81 16.25 5.84 32.54 11.41 48.95 15.98.46.13.91.19 1.33.19 6.11 0 8.31-12.45 1.68-14.3-16.21-4.52-32.27-9.96-48.31-15.68M3375.2 6408.21c-.99 4.69-2.02 9.39-3.08 14.09 27.27 8.49 54.54 16.93 81.81 25.37.51.16.99.23 1.45.23 5.99 0 8.11-12.32 1.54-14.35-27.24-8.43-54.49-16.86-81.72-25.34" transform="matrix(.13333 0 0 -.13333 0 1200)"/>
    <path style="fill:#ff5593;fill-opacity:1;fill-rule:nonzero;stroke:none" d="M3744.8 6466.34c-44.37 120.34-83.96 244.51-114.78 373.81-251-75.72-353.2-144.53-353.2-144.53 58.85-128.43 122.97-254.92 123.02-392.98 116.29 41.09 236.25 101.97 344.96 163.7" transform="matrix(.13333 0 0 -.13333 0 1200)"/>
    <path style="fill:#aa3c6e;fill-opacity:1;fill-rule:nonzero;stroke:none" d="M3425.37 6640.7c27.08-9.93 58.84 1.83 84.02 12.05 30.77 12.49 59.84 28.96 88.12 46.23 8.04 4.92.71 17.6-7.36 12.66-24.4-14.9-49.32-28.92-75.36-40.76-24.49-11.13-58.45-25.99-85.5-16.07-8.89 3.26-12.72-10.88-3.92-14.11M3446.7 6581.97c31.73 13.86 65.86 21.43 97.86 34.64 8.59 3.55 4.97 17.75-3.74 14.16-33.21-13.72-68.53-21.75-101.48-36.14-8.64-3.77-1.21-16.4 7.36-12.66M3441.29 6563.14c37.78-15.88 81.55 7.02 116.48 20.62 8.69 3.38 5.05 17.58-3.74 14.16-32.31-12.59-73.93-35.34-108.82-20.67-8.71 3.66-12.49-10.51-3.92-14.11M3425.52 6490.08c58.36 34.07 124.6 50.93 186.8 76.28 8.62 3.51 4.99 17.71-3.73 14.15-63.4-25.83-130.95-43.04-190.44-77.77-8.13-4.75-.8-17.42 7.37-12.66M3465.76 6450.47c40.62 15.67 81.27 31.23 120.48 50.23 8.5 4.11 1.09 16.75-7.36 12.65-38.04-18.43-77.45-33.53-116.86-48.73-8.7-3.36-5.06-17.54 3.74-14.15M3480.79 6424.85c14.49-6.21 34.71 5.8 47.62 11.61 22.52 10.13 44.42 21.95 65.68 34.51 8.12 4.79.77 17.47-7.37 12.66-17.18-10.14-34.79-19.56-52.69-28.38-9.48-4.67-19.12-9.09-29-12.87-3.4-1.31-14.25-6-16.88-4.88-8.56 3.69-16.03-8.93-7.36-12.65M4846.19 7085.46c-12.2 127.68-18.81 257.84-15.61 390.72-94.68-71.4-360.81-14.49-360.81-14.49 24.13-139.19 36.28-312.99 1.12-446.5 122.92 10.05 254.44 38.32 375.3 70.27" transform="matrix(.13333 0 0 -.13333 0 1200)"/>
    <path style="fill:#ff5593;fill-opacity:1;fill-rule:nonzero;stroke:none" d="M4863.76 7120.61c-12.2 127.68-18.8 257.83-15.62 390.71-94.67-71.39-360.81-14.49-360.81-14.49 24.14-139.19 36.29-312.99 1.13-446.5 122.92 10.06 254.44 38.32 375.3 70.28" transform="matrix(.13333 0 0 -.13333 0 1200)"/>
    <path style="fill:#aa3c6e;fill-opacity:1;fill-rule:nonzero;stroke:none" d="M4599.38 7370.69c23.65-16.51 57.37-13.24 84.32-9.78 32.93 4.22 65.24 12.73 97 22.22 9.03 2.69 5.18 16.82-3.89 14.12-27.4-8.19-55.07-15.39-83.27-20.19-26.51-4.52-63.14-10.22-86.77 6.27-7.76 5.42-15.06-7.28-7.39-12.64M4605.02 7308.47c34.22 5.3 69.15 3.91 103.47 8.52 9.21 1.24 9.33 15.89 0 14.64-35.63-4.79-71.83-3.53-107.36-9.05-9.3-1.44-5.34-15.55 3.89-14.11M4594.99 7291.64c32.47-25 80.64-14.03 117.88-9.79 9.28 1.06 9.38 15.71 0 14.64-34.45-3.92-80.5-15.3-110.49 7.78-7.48 5.76-14.76-6.96-7.39-12.63M4561.1 7225.02c65.12 18.05 133.47 17.45 200.08 26.09 9.23 1.19 9.35 15.85 0 14.64-67.89-8.81-137.6-8.22-203.97-26.61-9.08-2.52-5.22-16.64 3.89-14.12M4589.9 7176.45c43.27 4.79 86.55 9.46 129.31 17.82 9.27 1.82 5.33 15.93-3.89 14.12-41.48-8.12-83.44-12.66-125.42-17.3-9.27-1.03-9.37-15.68 0-14.64M4597.9 7147.85c12.43-9.72 35.04-3.26 49-.94 24.36 4.05 48.56 9.91 72.31 16.62 9.07 2.57 5.21 16.69-3.89 14.12-19.2-5.43-38.63-10.04-58.18-13.99-10.37-2.1-20.81-3.92-31.33-5.06-3.62-.39-15.3-2.16-17.56-.4-7.34 5.74-17.78-4.54-10.35-10.35" transform="matrix(.13333 0 0 -.13333 0 1200)"/>
    <path style="fill:#16b1b5;fill-opacity:1;fill-rule:nonzero;stroke:none" d="M8672.19 6347.08c19.76 126.73 45.55 254.48 81.51 382.44-109.4-45.77-353.19 75.2-353.19 75.2-11.04-140.84-42.25-312.25-109.35-432.91 121.59-20.66 256.02-25.8 381.03-24.73" transform="matrix(.13333 0 0 -.13333 0 1200)"/>
    <path style="fill:#46f2f2;fill-opacity:1;fill-rule:nonzero;stroke:none" d="M8697.91 6376.78c19.76 126.73 45.55 254.47 81.5 382.44-144.31 33.89-353.19 75.2-353.19 75.2-11.03-140.84-42.25-312.25-109.34-432.91 121.59-20.65 256.01-25.8 381.03-24.73" transform="matrix(.13333 0 0 -.13333 0 1200)"/>
    <path style="fill:#16b1b5;fill-opacity:1;fill-rule:nonzero;stroke:none" d="M8503.6 6684.49c18.82-21.85 52.3-27.02 79.27-30.34 32.96-4.06 66.36-3.8 99.48-2.46 9.42.39 9.18 15.02-.28 14.64-28.55-1.15-57.15-1.28-85.66 1.04-26.81 2.18-63.71 5.71-82.53 27.54-6.18 7.17-16.4-3.33-10.28-10.42M8493.67 6622.8c34.46-3.32 67.97-13.31 102.36-17.33 9.23-1.09 12.96 13.08 3.62 14.18-35.7 4.18-70.47 14.34-106.26 17.79-9.38.9-9.01-13.75.28-14.64M8479.79 6608.97c25.28-32.25 74.66-33.53 111.8-38.63 9.24-1.28 12.97 12.9 3.62 14.18-34.35 4.72-81.78 5.09-105.14 34.87-5.82 7.44-16.03-3.1-10.28-10.42M8430.48 6552.81c67.56 1.38 133.63-16.1 200.32-24.21 9.23-1.12 12.97 13.05 3.61 14.18-67.96 8.27-135.35 26.08-204.21 24.67-9.43-.19-9.17-14.84.28-14.64M8446.36 6498.62c43.11-6.06 86.21-12.24 129.7-14.71 9.43-.53 9.12 14.11-.27 14.64-42.2 2.4-83.98 8.38-125.81 14.26-9.24 1.3-12.96-12.87-3.62-14.19M8447.05 6468.94c9.64-12.49 33.14-11.83 47.24-13.03 24.61-2.1 49.5-2.41 74.18-1.78 9.42.24 9.17 14.88-.29 14.64-19.94-.51-39.91-.18-59.82.83-10.58.53-21.14 1.36-31.61 2.86-3.62.51-15.37 1.68-17.11 3.94-5.7 7.38-18.37 0-12.59-7.46" transform="matrix(.13333 0 0 -.13333 0 1200)"/>
    <path style="fill:#73cdc0;fill-opacity:1;fill-rule:nonzero;stroke:none" d="M5800.28 6215.1c-.23 0 .47.86 2.1 2.58l.71.12-.13-.8c-1.58-1.26-2.47-1.9-2.68-1.9M6249.54 6176.27c-60.81 0-125.52 11.84-190.09 23.67-64.58 11.84-129.03 23.67-189.37 23.67-23 0-45.4-1.72-66.99-5.81 42.87 234.04 41.88 488.34 29.74 724.49-11.32 220.16-3.42 514.56-77.58 722.45l110.37-2.3c2.64.59 5.38.91 8.18.91 1.03 0 2.07-.05 3.12-.13 2.26-.18 4.43-.59 6.54-1.15l148.53-3.09c61.31 5.56 125.12 6.55 188.73 6.55 17.65 0 35.3-.08 52.86-.16 17.57-.07 35.07-.15 52.44-.15 19.99 0 39.8.1 59.35.42 52.7.86 106.44 1.97 160.42 1.97 44.05 0 88.25-.74 132.17-2.94.96.06 1.93.1 2.91.1a33.706 33.706 0 0 0 6.5-.62c38.95-2.14 77.65-5.45 115.78-10.5-6.67-217.48-9.12-436.08-26.81-653.68-11.65-143.24-15.41-289.77-35.26-432.09-15.65-112.22-58.42-225.63-62.37-338.1-128.16-24.29-277.61-48.81-414.75-53.28-4.78-.15-9.59-.23-14.42-.23" transform="matrix(.13333 0 0 -.13333 0 1200)"/>
    <path style="fill:#fff;fill-opacity:1;fill-rule:nonzero;stroke:none" d="m5913.26 6284.72.08.8-.7-.18c-2.78-3.43-2.57-3.63.62-.62" transform="matrix(.13333 0 0 -.13333 0 1200)"/>
    <path style="fill:#fff;fill-opacity:1;fill-rule:nonzero;stroke:none" d="M6819.8 7144.19c-.03 218.32-15.37 436.39-26.38 653.69-137.86 6.99-281.1-8.64-417.38-21.99-114.22-11.19-237.97-15.64-351.66-35.35l-276.31-16.75c90.82-201.17 106.87-495.25 136.04-713.76 31.28-234.38 52.94-487.76 29.23-724.51 136.7 37.67 315.53-20.54 462.7-3.71 136.32 15.6 283.29 52.17 409.04 86.8-5.21 112.42 28.21 228.93 34.7 342.05 8.21 143.46.05 289.81.02 433.53" transform="matrix(.13333 0 0 -.13333 0 1200)"/>
    <path style="fill:#d7e0e0;fill-opacity:1;fill-rule:nonzero;stroke:none" d="M6055.73 7411.58c37.82-10.65 80.2 2.24 116.29 13.72 47.45 15.09 92.8 34.92 140.59 49.28 116.38 34.95 236.14 60.21 358.27 54.67 13.5-.62 13.44 20.32 0 20.93-116.07 5.27-230.05-17.04-341.17-48.77-47.82-13.66-93.37-30.84-139.93-47.91-38.12-13.97-87.59-33.25-128.48-21.74-13.02 3.67-18.54-16.53-5.57-20.18" transform="matrix(.13333 0 0 -.13333 0 1200)"/>
    <path style="fill:#d7e0e0;fill-opacity:1;fill-rule:nonzero;stroke:none" d="M6057.22 7301.97c187.4 108.14 405.61 173.97 620.24 197.77 13.27 1.47 13.41 22.41 0 20.93-218.44-24.22-439.99-90.52-630.81-200.62-11.69-6.74-1.15-24.84 10.57-18.08M6004.54 7242.95c178.26 80.22 378.45 82.6 563.77 139.12 12.87 3.93 7.37 24.14-5.57 20.19-187.27-57.12-388.55-60.15-568.77-141.23-12.29-5.53-1.64-23.56 10.57-18.08M6094.22 7219.77c164.97 22.18 329.95 44.51 493.85 73.77 13.27 2.37 7.62 22.54-5.58 20.19-163.89-29.26-328.87-51.6-493.83-73.78-13.33-1.79-7.63-21.96 5.56-20.18M6082.07 7116.48c26.74-6.9 55.45-2.57 82.22 1.89 42.09 7.01 83.42 18.84 124.32 30.78 81.85 23.88 162.88 54.55 246.78 70.62 13.24 2.53 7.62 22.71-5.57 20.18-78.36-15-154.3-42.98-230.58-65.83-40.46-12.12-81.18-23.65-122.56-32.2-28.09-5.79-60.62-12.59-89.04-5.25-13.08 3.37-18.63-16.82-5.57-20.19M6124.37 7034.96c109.03-7.78 221.73 21.25 325.42 52.01 12.91 3.84 7.41 24.04-5.57 20.19-102.09-30.29-212.51-58.92-319.85-51.27-13.48.96-13.39-19.98 0-20.93M6182.8 6956.87c36.5-37.93 112.72-16.37 155.97-5.52 59.04 14.82 118.13 35.96 172.77 62.9 12.11 5.97 1.5 24.03-10.55 18.08-48.72-24.02-100.92-42.27-153.16-56.9-29.37-8.23-59.48-14.95-89.97-17.08-19.51-1.36-45.57-1.94-60.25 13.32-9.38 9.75-24.15-5.07-14.81-14.8M6299.37 6843.52c51.45-15.52 106.49-9.2 158.79-1.91 61.97 8.62 123.57 23.13 186.38 23.67 13.5.11 13.51 21.05 0 20.93-55.78-.48-110.95-11.73-165.85-20.48-56.4-9-117.9-18.87-173.76-2.02-12.96 3.9-18.46-16.31-5.56-20.19M6074.46 6695.97c182.32 53.85 378.88 27.44 559.7 88.53 12.72 4.3 7.26 24.52-5.58 20.18-180.75-61.07-377.34-34.66-559.67-88.53-12.92-3.81-7.42-24.02 5.55-20.18M6157.29 6562.8c145.36 10.46 275.35 94.25 421.41 103.28 13.41.83 13.49 21.77 0 20.94-72.52-4.49-142.37-26.47-211.04-48.8-68.31-22.21-138.13-49.29-210.37-54.48-13.38-.97-13.48-21.91 0-20.94M6215.73 6543.78c-8.84-7.4-18.59-7.33-22.45-19.37-1.88-5.89 3.39-14.15 10.1-13.25 106.12 14.13 214.51 1.74 318.84 29.88 13.01 3.52 7.49 23.71-5.57 20.19-102.46-27.64-209.03-15.25-313.27-29.14 3.36-4.41 6.73-8.83 10.09-13.25.49 1.54 14.55 8.03 17.06 10.14 10.36 8.68-4.53 23.41-14.8 14.8M6371.79 6482.03c42.88-16.84 93.99.18 137.26 7.37 13.29 2.21 7.63 22.38-5.57 20.18-39.76-6.61-86.82-22.81-126.13-7.38-12.57 4.95-17.97-15.3-5.56-20.17" transform="matrix(.13333 0 0 -.13333 0 1200)"/>
    <path style="fill:#ff1717;fill-opacity:1;fill-rule:nonzero;stroke:none" d="M5907.15 7694.48c0-20.8-16.87-37.67-37.68-37.67s-37.67 16.87-37.67 37.67c0 20.81 16.86 37.68 37.67 37.68 20.81 0 37.68-16.87 37.68-37.68" transform="matrix(.13333 0 0 -.13333 0 1200)"/>
    <path style="fill:#579334;fill-opacity:1;fill-rule:nonzero;stroke:none" d="M6710.96 7761.46c0-20.8-16.88-37.67-37.68-37.67-20.81 0-37.68 16.87-37.68 37.67 0 20.82 16.87 37.69 37.68 37.69 20.8 0 37.68-16.87 37.68-37.69" transform="matrix(.13333 0 0 -.13333 0 1200)"/>
    <path style="fill:#aa3c6e;fill-opacity:1;fill-rule:nonzero;stroke:none" d="M7643.05 6344.47c-12.21 127.68-18.81 257.83-15.63 390.72-94.68-71.4-360.81-14.49-360.81-14.49 24.14-139.2 36.29-313 1.12-446.51 122.92 10.06 254.45 38.32 375.32 70.28" transform="matrix(.13333 0 0 -.13333 0 1200)"/>
    <path style="fill:#ff5593;fill-opacity:1;fill-rule:nonzero;stroke:none" d="M7660.62 6379.61c-12.21 127.68-18.81 257.84-15.62 390.72-94.7-71.4-360.82-14.5-360.82-14.5 24.14-139.18 36.29-312.99 1.12-446.5 122.92 10.06 254.45 38.32 375.32 70.28" transform="matrix(.13333 0 0 -.13333 0 1200)"/>
    <path style="fill:#aa3c6e;fill-opacity:1;fill-rule:nonzero;stroke:none" d="M7396.23 6629.69c23.65-16.51 57.36-13.23 84.32-9.78 32.93 4.23 65.24 12.73 97 22.22 9.02 2.7 5.17 16.83-3.9 14.12-27.38-8.19-55.06-15.38-83.26-20.19-26.5-4.51-63.14-10.22-86.77 6.28-7.76 5.42-15.08-7.29-7.39-12.65M7401.87 6567.47c34.21 5.31 69.16 3.91 103.46 8.52 9.21 1.24 9.34 15.89 0 14.64-35.61-4.79-71.82-3.53-107.35-9.04-9.31-1.44-5.34-15.55 3.89-14.12M7391.84 6550.64c32.48-25 80.63-14.02 117.88-9.79 9.27 1.06 9.37 15.71 0 14.65-34.46-3.93-80.5-15.3-110.49 7.78-7.48 5.76-14.76-6.97-7.39-12.64M7357.96 6484.02c65.11 18.06 133.46 17.45 200.08 26.09 9.23 1.2 9.33 15.86 0 14.65-67.9-8.81-137.61-8.22-203.98-26.62-9.08-2.52-5.22-16.64 3.9-14.12M7386.76 6435.45c43.26 4.79 86.54 9.47 129.3 17.83 9.26 1.81 5.33 15.92-3.89 14.12-41.48-8.12-83.44-12.66-125.41-17.31-9.29-1.02-9.39-15.68 0-14.64M7394.75 6406.86c12.43-9.72 35.04-3.26 49-.94 24.36 4.05 48.55 9.9 72.31 16.61 9.08 2.57 5.22 16.7-3.89 14.13-19.19-5.43-38.63-10.04-58.19-14-10.37-2.1-20.8-3.91-31.32-5.05-3.63-.39-15.31-2.17-17.56-.4-7.35 5.74-17.79-4.55-10.35-10.35M2888.24 5536.54c-12.2 127.68-18.81 257.83-15.62 390.72-94.68-71.41-360.81-14.49-360.81-14.49 24.14-139.2 36.29-313 1.12-446.52 122.92 10.07 254.44 38.33 375.31 70.29" transform="matrix(.13333 0 0 -.13333 0 1200)"/>
    <path style="fill:#ff5593;fill-opacity:1;fill-rule:nonzero;stroke:none" d="M2905.81 5571.68c-12.21 127.68-18.81 257.84-15.61 390.72-94.69-71.4-360.82-14.49-360.82-14.49 24.14-139.2 36.29-313 1.13-446.51 122.91 10.06 254.43 38.32 375.3 70.28" transform="matrix(.13333 0 0 -.13333 0 1200)"/>
    <path style="fill:#aa3c6e;fill-opacity:1;fill-rule:nonzero;stroke:none" d="M2641.43 5821.76c23.65-16.51 57.36-13.24 84.31-9.78 32.94 4.23 65.25 12.73 97 22.22 9.03 2.7 5.18 16.83-3.89 14.12-27.39-8.19-55.06-15.39-83.26-20.19-26.51-4.52-63.15-10.22-86.77 6.27-7.77 5.42-15.07-7.28-7.39-12.64M2647.07 5759.54c34.21 5.31 69.15 3.91 103.46 8.52 9.22 1.24 9.33 15.9 0 14.64-35.62-4.78-71.82-3.53-107.36-9.04-9.3-1.45-5.34-15.55 3.9-14.12M2637.04 5742.71c32.47-25 80.64-14.02 117.88-9.79 9.27 1.06 9.38 15.71 0 14.64-34.45-3.92-80.51-15.29-110.5 7.79-7.48 5.76-14.75-6.97-7.38-12.64M2603.14 5676.09c65.12 18.06 133.47 17.45 200.09 26.09 9.23 1.2 9.35 15.85 0 14.65-67.9-8.81-137.6-8.22-203.97-26.62-9.08-2.52-5.23-16.65 3.88-14.12M2631.95 5627.52c43.27 4.79 86.55 9.46 129.31 17.83 9.26 1.81 5.33 15.92-3.9 14.11-41.47-8.11-83.43-12.65-125.41-17.3-9.28-1.02-9.38-15.68 0-14.64M2639.95 5598.92c12.42-9.71 35.04-3.26 49-.93 24.36 4.05 48.55 9.9 72.31 16.61 9.07 2.57 5.21 16.7-3.9 14.13-19.2-5.43-38.62-10.04-58.17-14-10.37-2.1-20.81-3.91-31.34-5.05-3.62-.39-15.3-2.17-17.55-.41-7.34 5.74-17.79-4.54-10.35-10.35" transform="matrix(.13333 0 0 -.13333 0 1200)"/>
    <path style="fill:#3d3d3d;fill-opacity:1;fill-rule:nonzero;stroke:none" d="M6180.48 4145.54c4.11-59.38-40.69-107.51-100.06-107.51h-336.86c-59.37 0-101.49 48.13-94.07 107.51l85.13 680.88c7.41 59.38 46.39 107.51 87.02 107.51h230.6c40.63 0 76.91-48.13 81.03-107.51l47.21-680.88" transform="matrix(.13333 0 0 -.13333 0 1200)"/>
    <path style="fill:#707070;fill-opacity:1;fill-rule:nonzero;stroke:none" d="M6088.8 4164.35c3.29-46.42-32.49-84.04-79.91-84.04h-269.06c-47.41 0-81.05 37.62-75.13 84.04l68 532.18c5.92 46.4 37.05 84.03 69.51 84.03h184.16c32.46 0 61.44-37.63 64.73-84.03l37.7-532.18" transform="matrix(.13333 0 0 -.13333 0 1200)"/>
    <path style="fill:#3d3d3d;fill-opacity:1;fill-rule:nonzero;stroke:none" d="M5883.54 4467.99c-90.56 0-164.23-73.68-164.23-164.25 0-90.56 73.67-164.24 164.23-164.24 90.57 0 164.24 73.68 164.24 164.24 0 90.57-73.67 164.25-164.24 164.25zm0-341.69c-97.85 0-177.45 79.6-177.45 177.44 0 97.85 79.6 177.45 177.45 177.45s177.45-79.6 177.45-177.45c0-97.84-79.6-177.44-177.45-177.44" transform="matrix(.13333 0 0 -.13333 0 1200)"/>
    <path style="fill:#3d3d3d;fill-opacity:1;fill-rule:nonzero;stroke:none" d="M5883.54 4439.89c-75.06 0-136.15-61.06-136.15-136.14 0-75.08 61.09-136.14 136.15-136.14 75.07 0 136.15 61.06 136.15 136.14 0 75.08-61.08 136.14-136.15 136.14M5883.54 4716.23c-51.21 0-92.87-41.66-92.87-92.88 0-51.21 41.66-92.88 92.87-92.88 51.22 0 92.88 41.67 92.88 92.88 0 51.22-41.66 92.88-92.88 92.88zm0-193.22c-55.33 0-100.34 45.01-100.34 100.34 0 55.33 45.01 100.34 100.34 100.34 55.33 0 100.35-45.01 100.35-100.34 0-55.33-45.02-100.34-100.35-100.34" transform="matrix(.13333 0 0 -.13333 0 1200)"/>
    <path style="fill:#3d3d3d;fill-opacity:1;fill-rule:nonzero;stroke:none" d="M5883.54 4700.34c-42.45 0-76.99-34.53-76.99-76.99 0-42.45 34.54-76.98 76.99-76.98 42.46 0 76.99 34.53 76.99 76.98 0 42.46-34.53 76.99-76.99 76.99" transform="matrix(.13333 0 0 -.13333 0 1200)"/>
    <path style="fill:#a0a0a0;fill-opacity:1;fill-rule:nonzero;stroke:none" d="M10541.9 588.129h285.902v3264.18H10541.9z" transform="matrix(.13333 0 0 -.13333 0 1200)"/>
    <path style="fill:#3f4547;fill-opacity:1;fill-rule:nonzero;stroke:none" d="M10541.9 588.129h285.902v113.992H10541.9z" transform="matrix(.13333 0 0 -.13333 0 1200)"/>
    <path style="fill:#ccc;fill-opacity:1;fill-rule:nonzero;stroke:none" d="M10653.5 1044.54c0-20.39-13.1-36.91-29.2-36.91s-29.2 16.52-29.2 36.91v2630.82c0 20.39 13.1 36.93 29.2 36.93s29.2-16.54 29.2-36.93V1044.54" transform="matrix(.13333 0 0 -.13333 0 1200)"/>
    <path style="fill:#a0a0a0;fill-opacity:1;fill-rule:nonzero;stroke:none" d="M8503.16 588.129h285.941v3264.18H8503.16z" transform="matrix(.13333 0 0 -.13333 0 1200)"/>
    <path style="fill:#3f4547;fill-opacity:1;fill-rule:nonzero;stroke:none" d="M8503.16 588.129h285.941v113.992H8503.16z" transform="matrix(.13333 0 0 -.13333 0 1200)"/>
    <path style="fill:#ccc;fill-opacity:1;fill-rule:nonzero;stroke:none" d="M8614.79 1044.54c0-20.39-13.06-36.91-29.18-36.91-16.13 0-29.19 16.52-29.19 36.91v2630.82c0 20.39 13.06 36.93 29.19 36.93 16.12 0 29.18-16.54 29.18-36.93V1044.54" transform="matrix(.13333 0 0 -.13333 0 1200)"/>
    <path style="fill:#a0a0a0;fill-opacity:1;fill-rule:nonzero;stroke:none" d="M5232.75 588.129h285.941v3264.18H5232.75z" transform="matrix(.13333 0 0 -.13333 0 1200)"/>
    <path style="fill:#3f4547;fill-opacity:1;fill-rule:nonzero;stroke:none" d="M5232.75 588.129h285.941v113.992H5232.75z" transform="matrix(.13333 0 0 -.13333 0 1200)"/>
    <path style="fill:#ccc;fill-opacity:1;fill-rule:nonzero;stroke:none" d="M5344.38 1044.54c0-20.39-13.06-36.91-29.18-36.91-16.13 0-29.19 16.52-29.19 36.91v2630.82c0 20.39 13.06 36.93 29.19 36.93 16.12 0 29.18-16.54 29.18-36.93V1044.54" transform="matrix(.13333 0 0 -.13333 0 1200)"/>
    <path style="fill:#a0a0a0;fill-opacity:1;fill-rule:nonzero;stroke:none" d="M3202.44 588.129h285.938v3264.18H3202.44z" transform="matrix(.13333 0 0 -.13333 0 1200)"/>
    <path style="fill:#3f4547;fill-opacity:1;fill-rule:nonzero;stroke:none" d="M3202.44 588.129h285.938v113.992H3202.44z" transform="matrix(.13333 0 0 -.13333 0 1200)"/>
    <path style="fill:#ccc;fill-opacity:1;fill-rule:nonzero;stroke:none" d="M3314.07 1044.54c0-20.39-13.06-36.91-29.19-36.91-16.11 0-29.19 16.52-29.19 36.91v2630.82c0 20.39 13.08 36.93 29.19 36.93 16.13 0 29.19-16.54 29.19-36.93V1044.54" transform="matrix(.13333 0 0 -.13333 0 1200)"/>
    <path style="fill:#302530;fill-opacity:1;fill-rule:nonzero;stroke:none" d="M3190.41 3666.69h7652.89v251.18H3190.41z" transform="matrix(.13333 0 0 -.13333 0 1200)"/>
    <path style="fill:#60485e;fill-opacity:1;fill-rule:nonzero;stroke:none" d="M2955.97 3859.26H11061v167.457H2955.97z" transform="matrix(.13333 0 0 -.13333 0 1200)"/>
    <path style="fill:#423241;fill-opacity:1;fill-rule:nonzero;stroke:none" d="M11061 4026.72v-167.46H8835.06v167.46H11061" transform="matrix(.13333 0 0 -.13333 0 1200)"/>
    <path style="fill:#603043;fill-opacity:1;fill-rule:nonzero;stroke:none" d="M3832.03 4450.39c-4.85.61-9.74 1.21-14.56 1.82 7.74-.49 12.67-1.11 14.56-1.82" transform="matrix(.13333 0 0 -.13333 0 1200)"/>
    <path style="fill:#00788c;fill-opacity:1;fill-rule:nonzero;stroke:none" d="M3840.2 2989c-170.98-24.82 55.32-103.91-92.87-157.82l755.43-116.23c172.58 10.46 489.01 2.56 801.93-5.34 386.6-9.76 767.85-19.51 865.83 5.34 63.43 16.11 392.43 8.2 419.01 45.56-205.48 333.97-2492.9 265.74-2749.33 228.49" transform="matrix(.13333 0 0 -.13333 0 1200)"/>
    <path style="fill:#3d3d3d;fill-opacity:1;fill-rule:nonzero;stroke:none" d="M7364.85 4050.68h359.039v749.289H7364.85z" transform="matrix(.13333 0 0 -.13333 0 1200)"/>
    <path style="fill:#757573;fill-opacity:1;fill-rule:nonzero;stroke:none" d="M7364.85 4050.68h166.051v749.289H7364.85z" transform="matrix(.13333 0 0 -.13333 0 1200)"/>
    <path style="fill:#999995;fill-opacity:1;fill-rule:nonzero;stroke:none" d="M8363.74 4077.54c0-25.91-20.97-46.83-46.83-46.83H6771.85c-25.85 0-46.82 20.92-46.82 46.83 0 12.9 5.24 24.61 13.72 33.04a46.677 46.677 0 0 0 33.1 13.73h1545.06c25.86 0 46.83-20.97 46.83-46.77" transform="matrix(.13333 0 0 -.13333 0 1200)"/>
    <path style="fill:#3d3d3d;fill-opacity:1;fill-rule:nonzero;stroke:none" d="M8363.74 4077.54c0-25.91-14.7-46.83-32.83-46.83h-558.02c-18.12 0-32.82 20.92-32.82 46.83 0 12.9 3.68 24.61 9.62 33.04 5.94 8.47 14.12 13.73 23.2 13.73h558.02c18.13 0 32.83-20.97 32.83-46.77M8873.01 6108.53V4689.31c0-81.79-54.95-149.84-127.47-164.19-9.25-1.88-18.83-2.81-28.62-2.81H6219.78c-9.78 0-19.35.93-28.62 2.81-72.52 14.35-127.46 82.4-127.46 164.19v1419.22c0 92.19 69.92 166.94 156.08 166.94h2497.14c86.21 0 156.09-74.75 156.09-166.94" transform="matrix(.13333 0 0 -.13333 0 1200)"/>
    <path style="fill:#544753;fill-opacity:1;fill-rule:nonzero;stroke:none" d="M8686.96 6049.37V4748.41c0-84.54-63.18-153.06-141.18-153.06H6287.29c-77.97 0-141.18 68.52-141.18 153.06v1300.96c0 84.55 63.21 153.06 141.18 153.06h2258.49c78 0 141.18-68.51 141.18-153.06" transform="matrix(.13333 0 0 -.13333 0 1200)"/>
    <path style="fill:#ccc;fill-opacity:1;fill-rule:nonzero;stroke:none" d="M8694.48 4895.84v-210.89c0-83.5-51.6-152.99-119.71-167.65H6175.62c-68.12 14.66-119.71 84.15-119.71 167.65v210.89h2638.57" transform="matrix(.13333 0 0 -.13333 0 1200)"/>
    <path style="fill:#757573;fill-opacity:1;fill-rule:nonzero;stroke:none" d="M7411.79 4760.29c0-32.32-34.94-58.52-78.04-58.52-43.1 0-78.03 26.2-78.03 58.52 0 32.33 34.93 58.53 78.03 58.53s78.04-26.2 78.04-58.53" transform="matrix(.13333 0 0 -.13333 0 1200)"/>
    <path style="fill:#cacea5;fill-opacity:1;fill-rule:nonzero;stroke:none" d="M6375.67 6120.41h-129.21v-13.86h129.21v13.86M7114.09 6120.41h-175.37v-13.86h175.37v13.86M7151.02 6120.41v-13.86h572.27v13.86h-572.27M8115.59 6106.55v13.86h-355.38v-13.86h129.23v9.24h41.55v-9.24h184.6M8221.74 6120.41v-13.86h143.06v13.86h-143.06M6375.67 6055.79h-129.21v-13.85h129.21v13.85M7723.29 6055.79h-147.67v-13.85h147.67v13.85M7889.44 6055.79h-129.23v-13.85h129.23v13.85M8221.74 6055.79v-13.85h143.06v13.85h-143.06M8115.59 6055.79h-184.6v-13.85h184.6v13.85M7114.09 6055.79h-175.37v-13.85h175.37v13.85M7151.02 6055.79v-13.85h355.37v13.85h-355.37M6375.67 5991.18h-129.21v-13.85h129.21v13.85M7506.39 5991.18h-479.98v-13.85h479.98v13.85M7603.3 5991.18h-27.68v-13.85h27.68v13.85M7709.45 5991.18v-13.85h179.99v13.85h-179.99M8115.59 5991.18h-184.6v-13.85h184.6v13.85M8221.74 5991.18v-13.85h143.06v13.85h-143.06M6375.67 5926.56h-129.21v-13.84h129.21v13.84M7506.39 5926.56h-479.98v-13.84h479.98v13.84M7603.3 5926.56h-27.68v-13.84h27.68v13.84M7709.45 5926.56v-13.84h406.14v13.84h-406.14M8290.96 5926.56v-13.84h73.84v13.84h-73.84M8272.5 5926.56h-50.76v-13.84h50.76v13.84M6620.27 5861.95h-373.81v-13.84h373.81v13.84M7141.79 5861.95h-115.38v-13.84h115.38v13.84M7709.45 5861.95v-13.84h563.05v13.84h-563.05M8290.96 5861.95v-13.84h73.84v13.84h-73.84M7441.78 5861.95H7298.7v-13.84h143.08v13.84M6920.26 5788.12h-299.99v9.22h-373.81v-13.84h673.8v4.62M7441.78 5797.34H7298.7v-13.84h143.08v13.84M7709.45 5797.34v-9.22h-46.15v-4.62h299.98v13.84h-253.83M7977.13 5797.34v-13.84h295.37v13.84h-295.37M8290.96 5797.34v-13.84h73.84v13.84h-73.84M7141.79 5797.34h-115.38v-13.84h115.38v13.84" transform="matrix(.13333 0 0 -.13333 0 1200)"/>
    <path style="fill:#e0e8bf;fill-opacity:1;fill-rule:nonzero;stroke:none" d="M6246.46 5732.73v-13.84h18.45v4.61h41.54v-4.61h835.34v13.84h-895.33M7441.78 5732.73H7298.7v-13.84h143.08v13.84M7963.28 5732.73H7663.3v-13.84h299.98v13.84M7977.13 5732.73v-13.84h295.37v13.84h-295.37M8290.96 5732.73v-13.84h73.84v13.84h-73.84M6264.91 5668.12h-18.45v-13.84h18.45v13.84M6306.45 5668.12v-13.84h835.34v13.84h-835.34M7441.78 5668.12H7298.7v-13.84h143.08v13.84M7963.28 5668.12H7663.3v-13.84h299.98v13.84M7977.13 5668.12v-13.84h295.37v13.84h-295.37M8290.96 5668.12v-13.84h73.84v13.84h-73.84M6306.45 5603.51v-13.85h835.34v13.85h-835.34M7418.69 5603.51H7298.7v-13.85h119.99v13.85M7912.52 5603.51H7663.3v-13.85h249.22v13.85M8147.89 5603.51v-13.85h216.91v13.85h-216.91M8064.81 5603.51h-46.14v-13.85h46.14v13.85M7912.52 5538.9H7663.3v-13.85h249.22v13.85M8064.81 5538.9h-46.14v-13.85h46.14v13.85M8147.89 5538.9v-13.85h55.38v13.85h-55.38M8226.35 5538.9v-13.85h138.45v13.85h-138.45M7418.69 5538.9H7298.7v-13.85h119.99v13.85M6306.45 5538.9v-13.85h138.45v13.85h-138.45M6449.51 5538.9v-13.85h692.28v13.85h-692.28M7418.69 5474.28H7298.7v-13.85h119.99v13.85M7912.52 5474.28H7663.3v-13.85h249.22v13.85M8018.67 5474.28v-13.85h46.14v13.85h-46.14M8147.89 5474.28v-13.85h55.38v13.85h-55.38M8226.35 5474.28v-13.85h138.45v13.85h-138.45M6449.51 5474.28v-13.85h692.28v13.85h-692.28M6306.45 5474.28v-13.85h138.45v13.85h-138.45M6306.45 5409.67v-9.23h-41.54v9.23h-4.62v-13.84h184.61v13.84h-138.45M6449.51 5409.67v-13.84h969.18v13.84h-969.18M7801.76 5409.67H7663.3v-13.84h138.46v13.84M7815.6 5409.67v-13.84h387.67v13.84H7815.6M8226.35 5409.67v-13.84h138.45v13.84h-138.45M6740.27 5345.06v-13.85h678.42v13.85h-678.42M6260.29 5345.06v-13.85h184.61v13.85h-184.61M6449.51 5345.06v-13.85h230.76v13.85h-230.76M7815.6 5345.06v-13.85h387.67v13.85H7815.6M7801.76 5345.06h-263.07v-13.85h263.07v13.85M8226.35 5345.06v-13.85h138.45v13.85h-138.45M6347.98 5280.45h-87.69v-13.85h87.69v13.85M6371.06 5280.45v-13.85h73.84v13.85h-73.84M6449.51 5280.45v-13.85h230.76v13.85h-230.76M6740.27 5280.45v-13.85h678.42v13.85h-678.42M7801.76 5280.45h-263.07v-13.85h263.07v13.85M7815.6 5280.45v-13.85h387.67v13.85H7815.6M8226.35 5280.45v-13.85h138.45v13.85h-138.45M6934.1 5215.83v-13.84h724.58v13.84H6934.1M6347.98 5215.83h-87.69v-13.84h87.69v13.84M6472.6 5215.83h-101.54v-13.84h101.54v13.84M6518.74 5215.83v-13.84h161.53v13.84h-161.53M6740.27 5215.83v-13.84h161.53v13.84h-161.53M7686.38 5215.83v-13.84h115.38v13.84h-115.38M7815.6 5215.83v-13.84h549.2v13.84h-549.2M7686.38 5151.22v-13.85h115.38v13.85h-115.38M6347.98 5151.22h-101.52v-13.85h101.52v13.85M6518.74 5151.22v-13.85h161.53v13.85h-161.53M6472.6 5151.22h-101.54v-13.85h101.54v13.85M6740.27 5151.22v-13.85h161.53v13.85h-161.53M6934.1 5151.22v-13.85h724.58v13.85H6934.1M7815.6 5151.22v-13.85h549.2v13.85h-549.2M6347.98 5086.61h-101.52v-13.85h101.52v13.85M6657.2 5086.61h-138.46v-13.85h138.46v13.85M6744.88 5086.61v-13.85h156.92v13.85h-156.92M6472.6 5086.61h-101.54v-13.85h101.54v13.85M6934.1 5086.61v-13.85h198.46v13.85H6934.1M7160.24 5086.61v-13.85h184.61v13.85h-184.61M7386.4 5086.61v-13.85h272.28v13.85H7386.4M7686.38 5086.61v-13.85h678.42v13.85h-678.42M6472.6 5022h-226.14v-13.85h226.14V5022M6657.2 5022h-138.46v-13.85h138.46V5022M6744.88 5022v-13.85h387.68V5022h-387.68M7160.24 5022v-13.85h184.61V5022h-184.61M7386.4 5022v-13.85h272.28V5022H7386.4M7686.38 5022v-13.85h678.42V5022h-678.42" transform="matrix(.13333 0 0 -.13333 0 1200)"/>
    <path style="fill:#353535;fill-opacity:1;fill-rule:nonzero;stroke:none" d="M7556.88 5093.25H6326.1v927.45h1230.78v-927.45" transform="matrix(.13333 0 0 -.13333 0 1200)"/>
    <path style="fill:#707070;fill-opacity:1;fill-rule:nonzero;stroke:none" d="M7557.07 5951.25H6325.91v69.45h1231.16v-69.45" transform="matrix(.13333 0 0 -.13333 0 1200)"/>
    <path style="fill:#ff5821;fill-opacity:1;fill-rule:nonzero;stroke:none" d="M7492.41 5986.91c0-13.33-10.8-24.14-24.13-24.14-13.32 0-24.13 10.81-24.13 24.14 0 13.32 10.81 24.13 24.13 24.13 13.33 0 24.13-10.81 24.13-24.13" transform="matrix(.13333 0 0 -.13333 0 1200)"/>
    <path style="fill:#889f33;fill-opacity:1;fill-rule:nonzero;stroke:none" d="M7376.57 5986.91c0-13.33-10.8-24.14-24.13-24.14-13.32 0-24.13 10.81-24.13 24.14 0 13.32 10.81 24.13 24.13 24.13 13.33 0 24.13-10.81 24.13-24.13" transform="matrix(.13333 0 0 -.13333 0 1200)"/>
    <path style="fill:#fff;fill-opacity:1;fill-rule:nonzero;stroke:none" d="M7267.18 5986.91c0-13.33-10.8-24.14-24.13-24.14-13.33 0-24.14 10.81-24.14 24.14 0 13.32 10.81 24.13 24.14 24.13s24.13-10.81 24.13-24.13" transform="matrix(.13333 0 0 -.13333 0 1200)"/>
    <path style="fill:#889f33;fill-opacity:1;fill-rule:nonzero;stroke:none" d="M6457.93 5860.96h-48.27v-13.79h48.27v13.79M6619.96 5860.96v-13.79h675.71v13.79h-675.71M6457.93 5805.8h-48.27v-13.79h48.27v13.79M6619.96 5805.8v-13.79h513.68v10.34h110.32v-10.34h6.9v13.79h-630.9M6457.93 5750.64h-48.27v-13.79h48.27v13.79M6619.96 5750.64v-13.79h451.63v13.79h-451.63M7250.86 5743.75v6.89h-6.9v-13.79h51.71v6.9h-44.81M6619.96 5695.48v-6.89h-162.03v6.89h-48.27v-13.79h389.57v13.79h-179.27M6985.4 5695.48v-13.79h86.19v13.79h-86.19M7299.12 5695.48h-65.51v-13.79h65.51v13.79M6619.96 5640.31h-210.3v-13.79h210.3v13.79M7326.7 5640.31h-341.3v-13.79h341.3v13.79M6619.96 5585.15h-210.3v-13.79h210.3v13.79M7326.7 5585.15h-341.3v-10.33h-186.17v10.33h-13.79v-13.79h155.15v.01h117.2v-.01h17.25v10.35h72.39v-10.35h41.38v6.91h137.89v6.88M6940.59 5529.99h-155.15v-3.44h-165.48v3.44h-210.3v-13.79h530.93v13.79M7075.04 5529.99h-17.25v-13.79h17.25v13.79M7188.81 5529.99h-41.38v-13.79h41.38v13.79" transform="matrix(.13333 0 0 -.13333 0 1200)"/>
    <path style="fill:#ff5821;fill-opacity:1;fill-rule:nonzero;stroke:none" d="M6630.3 5343.83H6420v-13.79h210.3v13.79M6854.39 5343.83h-41.37v-13.79h41.37v13.79M7143.98 5343.83h-182.71v-13.79h182.71v13.79M6630.3 5278.32h-213.74v-13.79h213.74v13.79M6854.39 5278.32h-41.37v-13.79h41.37v13.79M6985.4 5278.32h-24.13v-13.79h24.13v13.79M7143.98 5278.32h-65.49v-13.79h65.49v13.79M6630.3 5212.82h-217.18v-13.79h217.18v13.79M7126.75 5212.82h-313.73v-13.79h313.73v13.79" transform="matrix(.13333 0 0 -.13333 0 1200)"/>
    <path style="fill:#353535;fill-opacity:1;fill-rule:nonzero;stroke:none" d="M8557.3 4976.69h-908.29v684.45h908.29v-684.45" transform="matrix(.13333 0 0 -.13333 0 1200)"/>
    <path style="fill:#707070;fill-opacity:1;fill-rule:nonzero;stroke:none" d="M8557.44 5609.89h-908.57v51.25h908.57v-51.25" transform="matrix(.13333 0 0 -.13333 0 1200)"/>
    <path style="fill:#ff5821;fill-opacity:1;fill-rule:nonzero;stroke:none" d="M8509.73 5636.2c0-9.83-7.97-17.81-17.82-17.81-9.83 0-17.8 7.98-17.8 17.81 0 9.84 7.97 17.81 17.8 17.81 9.85 0 17.82-7.97 17.82-17.81" transform="matrix(.13333 0 0 -.13333 0 1200)"/>
    <path style="fill:#889f33;fill-opacity:1;fill-rule:nonzero;stroke:none" d="M8424.25 5636.2c0-9.83-7.98-17.81-17.81-17.81-9.84 0-17.82 7.98-17.82 17.81 0 9.84 7.98 17.81 17.82 17.81 9.83 0 17.81-7.97 17.81-17.81" transform="matrix(.13333 0 0 -.13333 0 1200)"/>
    <path style="fill:#fff;fill-opacity:1;fill-rule:nonzero;stroke:none" d="M8343.51 5636.2c0-9.83-7.97-17.81-17.81-17.81s-17.82 7.98-17.82 17.81c0 9.84 7.98 17.81 17.82 17.81s17.81-7.97 17.81-17.81M7831.72 5520.88h-126.6v-4.87h126.6v4.87M7931.53 5520.88v-4.87h165.55v4.87h-165.55M7916.92 5520.88h-68.16v-4.87h68.16v4.87M8160.38 5520.88h-38.94v-4.87h38.94v4.87M8372.2 5520.88h-204.51v-4.87h204.51v4.87M8420.89 5520.88h-41.4v-4.87h41.4v4.87M8425.75 5520.88v-4.87h68.18v4.87h-68.18M7831.72 5508.7h-126.6v-7.3h126.6v7.3M7916.92 5508.7h-68.16v-7.3h68.16v7.3M7931.53 5508.7v-7.3h165.55v7.3h-165.55M8160.38 5508.7h-38.94v-7.3h38.94v7.3M8167.69 5508.7v-7.3h119.29v4.87h7.31v-4.87h77.91v7.3h-204.51M8420.89 5508.7h-41.4v-7.3h41.4v7.3M8425.75 5508.7v-7.3h68.18v7.3h-68.18M7919.36 5445.41h-214.24v-4.87h214.24v4.87M7924.23 5445.41v-4.87h85.21v4.87h-85.21M8028.92 5445.41v-4.87h68.16v4.87h-68.16M8286.98 5445.41h-165.54v-4.87h165.54v4.87M8384.37 5445.41v-4.87h109.56v4.87h-109.56M8372.2 5445.41h-77.91v-4.87h77.91v4.87M7924.23 5433.23v-19.48h85.21v19.48h-85.21M7919.36 5433.23h-214.24v-19.48h214.24v19.48M8028.92 5433.23v-19.48h68.16v19.48h-68.16M8372.2 5433.23h-77.91v-17.04h-7.31v17.04h-165.54v-19.48h250.76v19.48M8384.37 5433.23v-19.48h38.95v12.18h31.65v-12.18h38.96v19.48h-109.56M7821.98 5339.65h-114.43v-22.52h68.17v21.16h46.26v1.36M8255.33 5339.65v-1.36h34.08v1.36h-34.08M8386.81 5339.65v-1.36h43.82v-21.16h65.73v22.52h-109.55M8325.94 5339.65v-1.36h48.69v1.36h-48.69M7926.66 5201.95v-8.68h85.22v8.68h-85.22M7938.84 5248.2v-14.61h73.04v14.61h-73.04M7707.55 5248.2v-14.61h82.77v12.18h2.44v-12.18h17.04v14.61h-102.25M7812.24 5248.2v-14.61h92.52v14.61h-92.52M7812.24 5201.95v-8.68h109.55v8.68h-109.55M7790.32 5201.95h-82.77v-8.68h82.77v8.68M7792.76 5201.95v-8.68h17.04v8.68h-17.04M8087.34 5248.2h-55.99v-14.61h55.99v14.61M8087.34 5201.95h-55.99v-8.68h55.99v8.68M8325.94 5248.2v-14.61h48.69v14.61h-48.69M8123.87 5248.2v-14.61h165.54v14.61h-165.54M8115.49 5113.19v-14.61h165.55v14.61h-165.55M8314.35 5113.19v-14.61h165.55v14.61h-165.55M8291.86 5201.95h-167.99v-8.68h167.99v8.68M8325.94 5201.95v-8.68h48.69v8.68h-48.69M8386.81 5248.2v-14.61h38.94v14.61h-38.94M8457.4 5248.2v-14.61h38.96v14.61h-38.96M8386.81 5201.95v-8.68h38.94v8.68h-38.94M8457.4 5201.95v-8.68h38.96v8.68h-38.96M8010.02 5163.82v-1.37h43.82v-21.15h65.73v22.52h-109.55M7949.15 5072.37v-14.61h48.69v14.61h-48.69M7747.08 5072.37v-14.61h165.56v14.61h-165.56M7915.07 5026.11h-167.99v-8.67h167.99v8.67M7949.15 5026.11v-8.67h48.69v8.67h-48.69M8010.02 5072.37v-14.61h38.95v14.61h-38.95M8080.63 5072.37v-14.61h38.94v14.61h-38.94M8010.02 5026.11v-8.67h38.95v8.67h-38.95M8080.63 5026.11v-8.67h38.94v8.67h-38.94M7831.72 5557.4h-126.6v-17.04h126.6v17.04M7916.92 5557.4h-68.16v-17.04h68.16v17.04M7931.53 5557.4v-17.04h165.55v17.04h-165.55M8372.2 5540.36v17.04h-250.76v-17.04h38.94v12.16h7.31v-12.16h204.51M8379.49 5557.4v-17.04h41.4v4.86h4.86v-4.86h68.18v17.04h-114.44" transform="matrix(.13333 0 0 -.13333 0 1200)"/>
    <path style="fill:#9c9e8f;fill-opacity:1;fill-rule:nonzero;stroke:none" d="m7066.97 4094.53.32-55.82 686.58 4-.33 55.82-686.57-4" transform="matrix(.13333 0 0 -.13333 0 1200)"/>
    <path style="fill:#c9ccbc;fill-opacity:1;fill-rule:nonzero;stroke:none" d="m5735.69 4086.78-41.53-56.07 1548.96 9.03-.33 55.81-1507.1-8.77" transform="matrix(.13333 0 0 -.13333 0 1200)"/>
    <path style="fill:#3d3d3d;fill-opacity:1;fill-rule:nonzero;stroke:none" d="m5893.56 4135.14-157.87-48.36 2017.84 11.74-42.13 47.2-1817.84-10.58" transform="matrix(.13333 0 0 -.13333 0 1200)"/>
    <path style="fill:#728425;fill-opacity:1;fill-rule:nonzero;stroke:none" d="M8620.7 4030.71h-505.71c49.86 75.47 132.45 148.24 287.46 138.84 19.1-1.16 37.2-3.93 54.21-8.06 85.68-20.73 144.15-75.56 164.04-130.78" transform="matrix(.13333 0 0 -.13333 0 1200)"/>
    <path style="fill:#889f33;fill-opacity:1;fill-rule:nonzero;stroke:none" d="M8620.7 4030.71h-344.09c36.83 55.74 91.53 110.02 180.05 130.78 85.68-20.73 144.15-75.56 164.04-130.78" transform="matrix(.13333 0 0 -.13333 0 1200)"/>
    <path style="fill:#3d3d3d;fill-opacity:1;fill-rule:nonzero;stroke:none" d="M9525.46 4137.16c4.11-59.38-40.68-107.51-100.05-107.51h-336.87c-59.37 0-101.49 48.13-94.07 107.51l85.13 680.89c7.41 59.37 46.39 107.51 87.03 107.51h230.59c40.63 0 76.92-48.14 81.03-107.51l47.21-680.89" transform="matrix(.13333 0 0 -.13333 0 1200)"/>
    <path style="fill:#707070;fill-opacity:1;fill-rule:nonzero;stroke:none" d="M9433.79 4155.97c3.28-46.42-32.5-84.04-79.92-84.04h-269.06c-47.41 0-81.06 37.62-75.12 84.04l67.99 532.18c5.92 46.41 37.05 84.04 69.51 84.04h184.16c32.46 0 61.44-37.63 64.73-84.04l37.71-532.18" transform="matrix(.13333 0 0 -.13333 0 1200)"/>
    <path style="fill:#3d3d3d;fill-opacity:1;fill-rule:nonzero;stroke:none" d="M9228.53 4459.62c-90.57 0-164.24-73.68-164.24-164.25 0-90.56 73.67-164.25 164.24-164.25 90.56 0 164.23 73.69 164.23 164.25 0 90.57-73.67 164.25-164.23 164.25zm0-341.69c-97.85 0-177.46 79.59-177.46 177.44 0 97.84 79.61 177.45 177.46 177.45 97.84 0 177.44-79.61 177.44-177.45 0-97.85-79.6-177.44-177.44-177.44" transform="matrix(.13333 0 0 -.13333 0 1200)"/>
    <path style="fill:#3d3d3d;fill-opacity:1;fill-rule:nonzero;stroke:none" d="M9228.53 4431.52c-75.07 0-136.15-61.07-136.15-136.14 0-75.08 61.08-136.15 136.15-136.15 75.06 0 136.14 61.07 136.14 136.15 0 75.07-61.08 136.14-136.14 136.14M9228.53 4707.85c-51.22 0-92.88-41.66-92.88-92.87 0-51.21 41.66-92.88 92.88-92.88 51.2 0 92.87 41.67 92.87 92.88 0 51.21-41.67 92.87-92.87 92.87zm0-193.22c-55.34 0-100.35 45.01-100.35 100.35 0 55.33 45.01 100.34 100.35 100.34 55.32 0 100.34-45.01 100.34-100.34 0-55.34-45.02-100.35-100.34-100.35" transform="matrix(.13333 0 0 -.13333 0 1200)"/>
    <path style="fill:#3d3d3d;fill-opacity:1;fill-rule:nonzero;stroke:none" d="M9228.53 4691.97c-42.46 0-77-34.54-77-76.99 0-42.46 34.54-76.99 77-76.99 42.45 0 76.98 34.53 76.98 76.99 0 42.45-34.53 76.99-76.98 76.99" transform="matrix(.13333 0 0 -.13333 0 1200)"/>
    <path style="fill:#212030;fill-opacity:1;fill-rule:nonzero;stroke:none" d="M5838.6 734.77c-83.94 47.492-154.55 184.359-188.27 268.47-54.33 135.57-37.15-101.119-141.76-74.92-42.92 10.739-71.18-52.988-81.21-89.949-23.89-88.16-5.69-233.859 9.53-291.449 124.73-16.301 189.14-15.453 314.94-17.133 72.4-.957 228.93-1.891 272.51 63.863-34.16 91.977-111.84 99.328-185.74 141.118" transform="matrix(.13333 0 0 -.13333 0 1200)"/>
    <path style="fill:#ffa471;fill-opacity:1;fill-rule:nonzero;stroke:none" d="M5463.84 1414.94c-2.07-104.28-18.83-202.51-9.34-309.82 8.05-91.05-15.46-233.472 57.45-300.069 143.59 71.258 142.45 396.829 182.17 536.599l-230.28 73.29" transform="matrix(.13333 0 0 -.13333 0 1200)"/>
    <path style="fill:#212030;fill-opacity:1;fill-rule:nonzero;stroke:none" d="m5374.23 1093.42 288.02-18.22c8.72 36.64 17.25 73.41 25.73 110.39 118.89 518.67 303.72 1085.89 338.28 1632.16l-511.54 112.51c-91.29-10.76-143.74-328.52-159.4-439.02-34.63-244.52-3.79-494.75 6.07-739.84 8.41-209.54 21.43-436.4 12.84-657.98M7088.2 734.77c-83.94 47.492-154.54 184.359-188.27 268.47-54.33 135.57-37.15-101.119-141.77-74.92-42.91 10.739-71.17-52.988-81.19-89.949-23.9-88.16-5.7-233.859 9.53-291.449 124.72-16.301 189.13-15.453 314.93-17.133 72.4-.957 228.93-1.891 272.51 63.863-34.16 91.977-111.84 99.328-185.74 141.118" transform="matrix(.13333 0 0 -.13333 0 1200)"/>
    <path style="fill:#ffa471;fill-opacity:1;fill-rule:nonzero;stroke:none" d="M6713.45 1414.94c-2.08-104.28-18.84-202.51-9.35-309.82 8.06-91.05-15.46-233.472 57.45-300.069 143.59 71.258 142.45 396.829 182.17 536.599l-230.27 73.29" transform="matrix(.13333 0 0 -.13333 0 1200)"/>
    <path style="fill:#212030;fill-opacity:1;fill-rule:nonzero;stroke:none" d="m7275.84 2817.75-.17-2.17c-24.07-376.86-119.57-763.73-215.44-1137.67-42.95-167.38-85.94-332.16-122.66-492.32-8.46-36.98-16.99-73.73-25.7-110.4l-288.03 18.24c8.58 221.55-4.44 448.42-12.85 657.96-9.85 245.1-40.7 495.33-6.08 739.87 3.4 23.95 8.55 57.65 15.41 95.86 17.21 95.71 45.42 219.63 84.94 289.41 17.46 30.86 37.14 51.13 59.08 53.71l511.5-112.49" transform="matrix(.13333 0 0 -.13333 0 1200)"/>
    <path style="fill:#212030;fill-opacity:1;fill-rule:nonzero;stroke:none" d="M7275.67 2815.58c-6.91-21.01-18.96-42.7-36.84-64.97-69.79-87-204.68-128.53-354.43-147.83-86.28-11.13-177.5-14.86-264.08-15.66-102.44-.92-198.4 2.31-271.91 2.31-208.69 0-415.18-.54-620.85 16.75-111.65 9.38-252.86-.1-373.77 16.03-39.78 5.32-77.36 13.4-110.99 25.83l57.32 669.84c389.51 34.15 580.33 84.14 959.83 4.18 129.99-27.37 1115.9-201.37 1015.72-506.48" transform="matrix(.13333 0 0 -.13333 0 1200)"/>
    <path style="fill:#171721;fill-opacity:1;fill-rule:nonzero;stroke:none" d="M7060.23 1677.91c-42.95-167.38-85.94-332.16-122.66-492.32-8.46-36.98-16.99-73.73-25.7-110.4l-288.03 18.24c8.58 221.55-4.44 448.42-12.85 657.96-9.85 245.1-40.7 495.33-6.08 739.87 3.4 23.95 8.55 57.65 15.41 95.86-102.44-.92-198.4 2.31-271.91 2.31-208.69 0-415.18-.54-620.85 16.75-111.65 9.38-252.86-.1-373.77 16.03l33.57 319.13c39.15-57.23 308.13-46.85 392.15-50.24 185.5-7.53 368.2-3.13 552.7-12.56 111.48-5.69 242.9-1.13 373.05-2.01 145.27-.99 289-8.86 401.91-45.46-91.73-12.35-165.58-43.45-248.98-81.26 50.57-29.72 136.4-44.71 186.19-69.45-66.82 7.75-119.12-24.2-159.98-77.58-105-137.15-134.47-416.09-140.49-528.12-6.65-123.5 4.19-293.89 113.75-374.31 70.95-52.17 136.72-43.91 202.57-22.44" transform="matrix(.13333 0 0 -.13333 0 1200)"/>
    <path style="fill:#636363;fill-opacity:1;fill-rule:nonzero;stroke:none" d="M5506.54 6375.71c-50.57 0-91.72-41.1-91.72-91.62v-33.73c0-50.52 41.15-91.62 91.72-91.62h57.91c50.57 0 91.72 41.1 91.72 91.62v33.73c0 50.52-41.15 91.62-91.72 91.62zm57.91-236.17h-57.91c-62.11 0-112.64 49.71-112.64 110.82v33.73c0 61.11 50.53 110.82 112.64 110.82h57.91c62.12 0 112.65-49.71 112.65-110.82v-33.73c0-61.11-50.53-110.82-112.65-110.82" transform="matrix(.13333 0 0 -.13333 0 1200)"/>
    <path style="fill:#f2edee;fill-opacity:1;fill-rule:nonzero;stroke:none" d="M5512 6198.1c-3.11-25.7-11.13-117.87-9.67-169.55 1.82-64.3 9.75-131.02 22.27-193.04-70.83-26.02-177.78 62.29-223.78 109.02-69.67 70.81-108.82 156.66-120.41 254.68l331.59-1.11" transform="matrix(.13333 0 0 -.13333 0 1200)"/>
    <path style="fill:#f2f0eb;fill-opacity:1;fill-rule:nonzero;stroke:none" d="M5461.94 6147.27c-41.59.67-70.76-67.52-74.41-102.32-6.77-64.8 55.44-125.47 42.27-186.07-47.9 18.44-105.41 80.82-142.1 117.43-37.43 37.32-105.38 108.87-102.87 165.46l277.11 5.5" transform="matrix(.13333 0 0 -.13333 0 1200)"/>
    <path style="fill:#ffa471;fill-opacity:1;fill-rule:nonzero;stroke:none" d="M5558.58 6061.22c-3.35-113.62-25.87-225.94-25.33-245.7l-.04-.08c.09-1.97.09-4.02-.03-5.95-.13-8.66-1.43-17.33-5.15-25.2-3.82-7.74-10.01-14.65-19.89-19.89-40.74-21.51-93.7-23.48-143.93-13.89-8.38 1.59-16.71 3.51-24.87 5.73-5.61 1.47-11.1 3.1-16.54 4.86-18.67 6.06-36.26 13.52-51.87 21.89-23.2 12.48-42.03 27-53.59 41.99-4.56 5.99-8 12.06-10.08 18.09-.13-2.72-.3-5.65-.42-8.84-.09-1.54-.17-3.09-.21-4.69l-.09-1.96c-.12-1.93-.2-3.9-.29-5.91l-.09-2v-.47c-.08-1.71-.12-3.43-.2-5.19-.09-2.3-.17-4.68-.3-7.07-.09-2.47-.16-5.03-.25-7.66-.25-7.12-.54-14.65-.79-22.61-.38-12.1-.75-24.78-1.13-37.8-.09-3.9-.22-7.83-.3-11.76-.62-22.82-1.17-46.43-1.67-69.42-.04-2.05-.09-4.1-.12-6.11-.39-16.41-.68-32.48-.97-47.64-.38-20.52-.71-39.39-.92-55.52-.51-31.69-.67-52.53-.51-53.41l-1.17-.3c-31.76-8.5-81.13-12.39-137.94-12.18-103.32.34-231.26 14.27-322.57 38.72l-.04.04c-36.42 9.72-67.03 21.15-87.92 34.04-7.37 4.52-13.47 9.26-18.25 14.11l-.46.5-2.34 2.6c10.55 18.84 17.96 60.87 23.27 113.87.59 5.86 1.17 11.85 1.68 17.96.84 9.17 1.54 18.63 2.26 28.3 2.35 32.4 4.1 67.16 5.48 102.11 2.64 69.03 3.69 138.95 4.44 193.37v.04c.42 28.76.71 53.21 1.13 70.92.33 13.57.42 25.37.3 35-1.89 117.73-15.58 234.99-23.86 353.01-12.65 180.94 729.49 143.05 729.49 143.05 55.97-42.96 74.73-106.34 90.09-176.05l.75-3.51c4.69-21.43 9.13-43.46 14.24-65.69.58-2.55 1.21-5.15 1.83-7.7.51-2.13 1.05-4.31 1.56-6.44l.07-.35.64-2.46c1.96-7.83 4.01-15.7 6.24-23.53 1-3.39 1.96-6.74 3.01-10.13 4.35-14.24 9.29-28.43 15.11-42.45 2.31-2.27 4.48-4.69 6.58-7.2a122.4 122.4 0 0 0 11-15.41c13.44-21.89 22.28-49.65 27.76-80.63 6.91-39.14 8.5-83.35 7.2-127.4" transform="matrix(.13333 0 0 -.13333 0 1200)"/>
    <path style="fill:#e07f4f;fill-opacity:1;fill-rule:nonzero;stroke:none" d="M5528.01 5784.31c-3.81-7.76-9.99-14.68-19.89-19.91-101.43-53.58-278.6 14.2-300.85 78.66-4.42-85.21-12.38-408.2-8.84-424.74-121.23-33.31-506.5 79.01-570.11 154.22 37.06 66.32 35.72 419.47 38.25 526.56l510.69 119.55c7.53-14.22-.99-44.74-1.61-62.87-.83-23.14-.41-47.53 1.1-70.63 2.81-43.99 15.07-89.74 34.08-130.42 35.19-75.25 102.9-156.08 188-175.77 35.63-8.24 86.75-9.14 129.18 5.35" transform="matrix(.13333 0 0 -.13333 0 1200)"/>
    <path style="fill:#ffa471;fill-opacity:1;fill-rule:nonzero;stroke:none" d="M5604.59 6128.88c-3.41 6.14-25.43 16.5-31.89 23.75-13.79 15.42-20.86 36.63-30.33 54.7-12.92 24.73-30.95 74.29-49.43 85.64l7.71-243.39c28.12 9.72 142.53 9.83 103.94 79.3" transform="matrix(.13333 0 0 -.13333 0 1200)"/>
    <path style="fill:#121c26;fill-opacity:1;fill-rule:nonzero;stroke:none" d="M5523.62 6269.25a23.58 23.58 0 0 0-3.64-2.8c-3.39-2.18-7.07-3.52-11.01-3.86-8.37-.67-16.53 3.31-23.4 10.55-9.54 10.05-16.46 26.42-18.09 45.39-.62 7.45-.37 14.69.67 21.39 1.89 12.69 6.45 23.53 12.82 30.86l.07-.35.64-2.46c1.96-7.83 4.01-15.7 6.24-23.53 1-3.39 1.96-6.74 3.01-10.13 4.35-14.24 9.29-28.43 15.11-42.45 2.31-2.27 4.48-4.69 6.58-7.2a122.4 122.4 0 0 0 11-15.41" transform="matrix(.13333 0 0 -.13333 0 1200)"/>
    <path style="fill:#121c26;fill-opacity:1;fill-rule:nonzero;stroke:none" d="M5487.92 6344.44c-6.83-1.05-13.53-2.59-19.77-4.52-16.78-5.15-30.22-13.1-33.7-22.57 4.4 27.18 21.27 50.07 44.96 59.87.51-2.13 1.05-4.31 1.56-6.44l.07-.35.64-2.46c1.96-7.83 4.01-15.7 6.24-23.53" transform="matrix(.13333 0 0 -.13333 0 1200)"/>
    <path style="fill:#49211c;fill-opacity:1;fill-rule:nonzero;stroke:none" d="M5504.51 6438.98c-16.85 17.13-61.8 22.01-89.81 3.27-29.83-16.2-67.39-58.85-62.07-72.38 2.53-11.08 79.24 4 97.9 8.82 18.28 6.04 99.54 12.07 53.98 60.29" transform="matrix(.13333 0 0 -.13333 0 1200)"/>
    <path style="fill:#49211c;fill-opacity:1;fill-rule:nonzero;stroke:none" d="M4631.82 6696.59c66.04 194.34 259.97 171.87 482.84 164.2 237.95-8.18 412.56-97.98 412.56-97.98-3.44-155.01 11.17-164.55-50.51-305.56-38.7-5.2-162.72-214.59-313.86-104.56 54.96-94.68 62.24-336.35 11.88-443.31-46.1-97.84-80.92-32.88-159.64-89.81-15.35 27.98-37.51 55.8-59.76 74.99 8.56-55.43 27.15-113.56 17.8-171.52-65.33-35.73-125.45-38.74-201.33-42.25-109.79-5.08-123.77 6.01-155.94 105.13-49.36 152.05-40.85 232.09-109.95 376.79-52.5 150.44-153.7 390.88 125.91 533.88" transform="matrix(.13333 0 0 -.13333 0 1200)"/>
    <path style="fill:#636363;fill-opacity:1;fill-rule:nonzero;stroke:none" d="m5138.77 6212.62 521.58 90.29 6.29-31.4-507.2-90.18-20.67 31.29" transform="matrix(.13333 0 0 -.13333 0 1200)"/>
    <path style="fill:#ffa471;fill-opacity:1;fill-rule:nonzero;stroke:none" d="M5061.93 6221.25c66.93 76.76 145.14-20.02 176.24-58.27 0 0-.75-133.38-36.71-164.23-43.53-37.34-106.66-1.7-134.51 36.14-36.97 50.24-55.13 128.85-5.02 186.36" transform="matrix(.13333 0 0 -.13333 0 1200)"/>
    <path style="fill:#e07f4f;fill-opacity:1;fill-rule:nonzero;stroke:none" d="M5064.61 6178.71c20.96 58.24 76.61 30.2 101.17-8.99-85.87 32.58-95.14-66.63-73.73-122.71-20.97 39.45-44.14 85.24-27.44 131.7" transform="matrix(.13333 0 0 -.13333 0 1200)"/>
    <path style="fill:#ff5821;fill-opacity:1;fill-rule:nonzero;stroke:none" d="M5865.25 3294.09c-1.47-.79-2.98-1.58-4.48-2.38-101.98-53.47-294.72-107.13-415.05-132.97-30.44-6.48-56.18-11.25-74.72-13.77-204.6-27.88-402.49-24.79-601.89 19.55-52.63 192.16-174.25 369.5-218.88 565.72-51.53 226.65-137.22 554.88-148.11 790.24-8.08 174.16-119.1 627.43-108.56 802.92 3.98 66.19 51.9 61.13 103.33 56.07 48.77-4.8 100.7-9.59 121.32 46.34l1.25 105.11c-7.99 63.3-19.25 130.04-8.78 195.22 192.61 7.45 458.03 32.49 628.18-47.89 152.8-72.22 337.38-97.13 472.82-219.21 77.86-70.12 102.65-662.42 142.33-1197.99 31.78-428.57 73.01-820.84 158.63-880.38 36.09-25.11 9.84-55.76-47.39-86.58" transform="matrix(.13333 0 0 -.13333 0 1200)"/>
    <path style="fill:#d83a0f;fill-opacity:1;fill-rule:nonzero;stroke:none" d="M5860.77 3291.71c-101.98-53.47-294.73-107.13-415.05-132.97-34.41 267.61 62.42 662.72 12.1 856.14-52.24 200.62-68.74 374.35-100.48 577.69-13.8 88.63 1.98 273.54-2.51 362.71-3.22 63.76 13.07 142.14-8.41 200.54l217.69-535.87c17.26-137.61 120.78-242.02 189.9-358.91 31.78-428.56 73.01-820.83 158.63-880.37 10.3-7.15 34.99-43.97-51.87-88.96" transform="matrix(.13333 0 0 -.13333 0 1200)"/>
    <path style="fill:#212030;fill-opacity:1;fill-rule:nonzero;stroke:none" d="M5365.25 5772.62c0-129.48-104.96-234.44-234.44-234.44-129.48 0-234.44 104.96-234.44 234.44 0 129.48 104.96 234.45 234.44 234.45 129.48 0 234.44-104.97 234.44-234.45" transform="matrix(.13333 0 0 -.13333 0 1200)"/>
    <path style="fill:#3c3c56;fill-opacity:1;fill-rule:nonzero;stroke:none" d="M5340.14 5772.62c0-94.79-76.86-171.64-171.65-171.64-94.8 0-171.64 76.85-171.64 171.64 0 94.8 76.84 171.65 171.64 171.65 94.79 0 171.65-76.85 171.65-171.65" transform="matrix(.13333 0 0 -.13333 0 1200)"/>
    <path style="fill:#212030;fill-opacity:1;fill-rule:nonzero;stroke:none" d="M5323.39 5772.62c0-63.58-51.54-115.12-115.13-115.12-63.58 0-115.13 51.54-115.13 115.12 0 63.59 51.55 115.13 115.13 115.13 63.59 0 115.13-51.54 115.13-115.13" transform="matrix(.13333 0 0 -.13333 0 1200)"/>
    <path style="fill:#8a8a8e;fill-opacity:1;fill-rule:nonzero;stroke:none" d="M5216.64 5817.28c-190.05-60.48-494.51-16.3-676.42 57.05.84-36.82-8.11-116.82-5.97-153.34 92.99-40.9 190.06-45.29 293.05-50.24 106.85-5.13 305.01 22.79 401.9 66.99l-12.56 79.54" transform="matrix(.13333 0 0 -.13333 0 1200)"/>
    <path style="fill:#8a8a8e;fill-opacity:1;fill-rule:nonzero;stroke:none" d="M5271.06 5779.6c0-25.43-20.61-46.05-46.05-46.05-25.43 0-46.05 20.62-46.05 46.05 0 25.43 20.62 46.05 46.05 46.05 25.44 0 46.05-20.62 46.05-46.05" transform="matrix(.13333 0 0 -.13333 0 1200)"/>
    <path style="fill:#ff5821;fill-opacity:1;fill-rule:nonzero;stroke:none" d="M6110.16 4059.26c-3.39-2.8-6.82-5.57-10.35-8.25-54.04-41.32-124.29-62.89-260.4 42.83-15.27 11.84-31.35 25.28-48.31 40.48-108.21 96.83-198.27 292.25-281.53 406.13-9.55 13.06-19.09 26.54-28.59 40.48-136.69 200.03-265.8 485.93-262.34 726.4 1.48 101.36 24.67 178.22 122.5 205.97 65.81 18.67 189.49 92.48 349.03-160.93 0 0 261.11-546.04 382.39-931.07 56.61-179.77 82.77-324.45 37.6-362.04" transform="matrix(.13333 0 0 -.13333 0 1200)"/>
    <path style="fill:#ffa471;fill-opacity:1;fill-rule:nonzero;stroke:none" d="M7028.46 4306.95c-96.82 32.24-214.41-29.96-302.6-68.76l89.4-91.8c68.27-13.11 96.56-13.54 165.12-11.6 187.51 5.31 206.09-24.17 269.15-7.25-13.78 83.34-125.5 147.6-221.07 179.41" transform="matrix(.13333 0 0 -.13333 0 1200)"/>
    <path style="fill:#ff5821;fill-opacity:1;fill-rule:nonzero;stroke:none" d="M6888.51 4126.32c-8.04-16.79-190.9-63.09-370.8-102.78-149.58-32.94-297.15-61.32-340.4-64.3-131.41-8.96-260.19 39.44-337.9 134.6-40.31 49.35-66.89 111.24-73 184.25-.46 5.06-.79 10.21-1.01 15.4l166.84 126.05c47.55 10.25 93.1 9.39 140.32 1.76 167.09-26.88 355.02-138.28 727.36-141.38 0 0 107.35-114.29 88.59-153.6" transform="matrix(.13333 0 0 -.13333 0 1200)"/>
    <path style="fill:#d83a0f;fill-opacity:1;fill-rule:nonzero;stroke:none" d="M6517.71 4023.54c-149.58-32.94-297.15-61.32-340.4-64.3-131.41-8.96-260.19 39.44-337.9 134.6-15.27 11.84-31.35 25.28-48.31 40.48-108.21 96.83-198.27 292.25-281.53 406.13-9.55 13.06-19.09 26.54-28.59 40.48-66.24 194.29-142.75 308.9-136.18 507.72 69.08-320.25 358.93-723.94 421.61-810.56 50.74-70.21 108.35-135.74 179.34-193.13-8.71 46.9-6.57 99.97-2.97 147.33 37.97-94.24 90.51-149.93 157.03-181.28 72.81-34.33 162.4-39.56 268.11-34.33 48.48 2.38 99.13 4.27 149.79 6.86" transform="matrix(.13333 0 0 -.13333 0 1200)"/>
    <path style="fill:#44283e;fill-opacity:1;fill-rule:nonzero;stroke:none" d="M4284.75 1885.35c0-26.27-14.79-47.58-33.02-47.58h-222.05c-18.24 0-33.03 21.31-33.03 47.58 0 26.26 14.79 47.58 33.03 47.58h222.05c18.23 0 33.02-21.32 33.02-47.58" transform="matrix(.13333 0 0 -.13333 0 1200)"/>
    <path style="fill:#44283e;fill-opacity:1;fill-rule:nonzero;stroke:none" d="M4187.43 1864.85c78.35 12.49 158.27 6.65 236.62 19.66 79.27 13.16 144.55 56.82 209.78 101.07 64.38 43.68 128.06 88.86 199.67 120.19 77.22 33.78 166.39 31.97 248.55 43.38 24.12 3.35 13.82 39.87-10.08 36.56-82.4-11.44-169.01-10.83-247.1-42.76-71.79-29.38-135.69-73.79-199.41-117.32-66.39-45.33-130.96-90-211.49-104.57-77.98-14.13-158.28-7.15-236.61-19.66-24.09-3.84-13.82-40.37 10.07-36.55" transform="matrix(.13333 0 0 -.13333 0 1200)"/>
    <path style="fill:#553d57;fill-opacity:1;fill-rule:nonzero;stroke:none" d="M6666.35 2518.64v-58.38c0-62.81-50.9-113.72-113.71-113.72H3959.93c-62.81 0-113.72 50.91-113.72 113.72v58.38c0 62.81 50.91 113.72 113.72 113.72h2592.71c62.81 0 113.71-50.91 113.71-113.72" transform="matrix(.13333 0 0 -.13333 0 1200)"/>
    <path style="fill:#44283e;fill-opacity:1;fill-rule:nonzero;stroke:none" d="M6784.97 2632.36v-10.39c0-70.81-48.94-131.53-118.62-157.23v-4.48c0-62.81-50.9-113.72-113.71-113.72H4954.92c-59.85 0-108.98 46.29-113.38 105.08-.23 2.84-.34 5.72-.34 8.64v58.38c0 62.81 50.95 113.72 113.72 113.72h1830.05" transform="matrix(.13333 0 0 -.13333 0 1200)"/>
    <path style="fill:#44283e;fill-opacity:1;fill-rule:nonzero;stroke:none" d="M5434.63 2034.59h-288l-891.53 454.85h2055.97l-876.44-454.85" transform="matrix(.13333 0 0 -.13333 0 1200)"/>
    <path style="fill:#553d57;fill-opacity:1;fill-rule:nonzero;stroke:none" d="M5322.98 2034.6h-179.47l-891.55 454.84h641.4l429.62-454.84" transform="matrix(.13333 0 0 -.13333 0 1200)"/>
    <path style="fill:#44283e;fill-opacity:1;fill-rule:nonzero;stroke:none" d="M5211.87 1526.63h138.98v485.223h-138.98z" transform="matrix(.13333 0 0 -.13333 0 1200)"/>
    <path style="fill:#fffef8;fill-opacity:1;fill-rule:nonzero;stroke:none" d="M5218.84 1072.98h13.91v453.648h-13.91z" transform="matrix(.13333 0 0 -.13333 0 1200)"/>
    <path style="fill:#cdbdc4;fill-opacity:1;fill-rule:nonzero;stroke:none" d="M5232.75 1072.98h53.262v453.648h-53.262z" transform="matrix(.13333 0 0 -.13333 0 1200)"/>
    <path style="fill:#f0f0f0;fill-opacity:1;fill-rule:nonzero;stroke:none" d="M5286.01 1072.98h30.18v453.648h-30.18z" transform="matrix(.13333 0 0 -.13333 0 1200)"/>
    <path style="fill:#572f4b;fill-opacity:1;fill-rule:nonzero;stroke:none" d="M5316.19 1526.63h-97.35v272.94h97.35v-272.94" transform="matrix(.13333 0 0 -.13333 0 1200)"/>
    <path style="fill:#44283e;fill-opacity:1;fill-rule:nonzero;stroke:none" d="M5392.56 1072.98h-222.39v726.59h222.39v-726.59" transform="matrix(.13333 0 0 -.13333 0 1200)"/>
    <path style="fill:#69698e;fill-opacity:1;fill-rule:nonzero;stroke:none" d="M5267.52 1072.98h-97.35v726.59h97.35v-726.59" transform="matrix(.13333 0 0 -.13333 0 1200)"/>
    <path style="fill:#553d57;fill-opacity:1;fill-rule:nonzero;stroke:none" d="M5463.28 1987.86c0-25.84-16.5-46.77-36.85-46.77H5136.6c-20.34 0-36.83 20.93-36.83 46.77 0 12.93 4.11 24.59 10.79 33.06 6.67 8.45 15.87 13.68 26.04 13.68h289.83c20.35 0 36.85-20.93 36.85-46.74" transform="matrix(.13333 0 0 -.13333 0 1200)"/>
    <path style="fill:#44283e;fill-opacity:1;fill-rule:nonzero;stroke:none" d="M5463.28 1987.86c0-25.84-16.5-46.77-36.85-46.77h-108.04c-20.35 0-36.85 20.93-36.85 46.77 0 12.93 4.11 24.59 10.78 33.06 6.68 8.45 15.91 13.68 26.07 13.68h108.04c20.35 0 36.85-20.93 36.85-46.74M5357.03 1121.28V714.871c0-22.07-10.27-41.742-26.31-54.43a68.077 68.077 0 0 0-18.68-10.652c-7.63-2.887-15.89-4.437-24.5-4.437-8.59 0-16.87 1.55-24.48 4.437a68.798 68.798 0 0 0-18.73 10.652 65.451 65.451 0 0 0-5.95 5.258c-12.59 12.59-20.35 29.981-20.35 49.172v406.409c0 22.02 10.27 41.69 26.3 54.4 5.61 4.47 11.9 8.07 18.73 10.64 7.61 2.88 15.89 4.44 24.48 4.44 8.61 0 16.87-1.56 24.5-4.44a68.298 68.298 0 0 0 18.68-10.64c2.09-1.65 4.06-3.38 5.95-5.28 12.59-12.59 20.36-29.95 20.36-49.12" transform="matrix(.13333 0 0 -.13333 0 1200)"/>
    <path style="fill:#553d57;fill-opacity:1;fill-rule:nonzero;stroke:none" d="M5297.53 866.559c0-5.52-4.48-10-10-10-5.54 0-10.01 4.48-10.01 10v237.781c0 5.51 4.47 10 10.01 10 5.52 0 10-4.49 10-10V866.559" transform="matrix(.13333 0 0 -.13333 0 1200)"/>
    <path style="fill:#44283e;fill-opacity:1;fill-rule:nonzero;stroke:none" d="M5322.91 739.473h-94.19V876.07h94.19V739.473" transform="matrix(.13333 0 0 -.13333 0 1200)"/>
    <path style="fill:#69698e;fill-opacity:1;fill-rule:nonzero;stroke:none" d="M5264.15 739.473h-35.43V876.07h35.43V739.473" transform="matrix(.13333 0 0 -.13333 0 1200)"/>
    <path style="fill:#2d2d3f;fill-opacity:1;fill-rule:nonzero;stroke:none" d="M5239.57 650.051c0-75.821-61.45-137.281-137.28-137.281-75.81 0-137.26 61.46-137.26 137.281 0 75.808 61.45 137.262 137.26 137.262 75.83 0 137.28-61.454 137.28-137.262" transform="matrix(.13333 0 0 -.13333 0 1200)"/>
    <path style="fill:#1d1d28;fill-opacity:1;fill-rule:nonzero;stroke:none" d="M5170.93 650.051c0-37.91-30.72-68.641-68.64-68.641-37.9 0-68.63 30.731-68.63 68.641 0 37.898 30.73 68.629 68.63 68.629 37.92 0 68.64-30.731 68.64-68.629" transform="matrix(.13333 0 0 -.13333 0 1200)"/>
    <path style="fill:#69698e;fill-opacity:1;fill-rule:nonzero;stroke:none" d="M5339.97 695.852h-397.68c4.34 70.64 91.65 127 198.81 127 14.95 0 29.53-1.09 43.56-3.18 86.39-12.801 151.55-63.031 155.31-123.82" transform="matrix(.13333 0 0 -.13333 0 1200)"/>
    <path style="fill:#44283e;fill-opacity:1;fill-rule:nonzero;stroke:none" d="M5339.97 695.852h-310.61c3.8 60.789 68.96 111.019 155.3 123.82 86.39-12.801 151.55-63.031 155.31-123.82M4104.24 757.27h-94.2v136.601h94.2V757.27" transform="matrix(.13333 0 0 -.13333 0 1200)"/>
    <path style="fill:#49363e;fill-opacity:1;fill-rule:nonzero;stroke:none" d="M4045.48 757.27h-35.44v136.601h35.44V757.27" transform="matrix(.13333 0 0 -.13333 0 1200)"/>
    <path style="fill:#2d2d3f;fill-opacity:1;fill-rule:nonzero;stroke:none" d="M4020.91 667.852c0-75.821-61.47-137.282-137.29-137.282-75.81 0-137.26 61.461-137.26 137.282 0 75.808 61.45 137.269 137.26 137.269 75.82 0 137.29-61.461 137.29-137.269" transform="matrix(.13333 0 0 -.13333 0 1200)"/>
    <path style="fill:#1d1d28;fill-opacity:1;fill-rule:nonzero;stroke:none" d="M3952.27 667.852c0-37.911-30.74-68.653-68.65-68.653-37.9 0-68.63 30.742-68.63 68.653 0 37.898 30.73 68.628 68.63 68.628 37.91 0 68.65-30.73 68.65-68.628" transform="matrix(.13333 0 0 -.13333 0 1200)"/>
    <path style="fill:#69698e;fill-opacity:1;fill-rule:nonzero;stroke:none" d="M4121.3 713.652h-397.7c4.36 70.629 91.66 126.996 198.82 126.996 14.97 0 29.52-1.089 43.57-3.187 86.39-12.801 151.55-63.031 155.31-123.809" transform="matrix(.13333 0 0 -.13333 0 1200)"/>
    <path style="fill:#44283e;fill-opacity:1;fill-rule:nonzero;stroke:none" d="M4121.3 713.652h-310.62c3.81 60.778 68.97 111.008 155.31 123.809 86.39-12.801 151.55-63.031 155.31-123.809M5170.8 1289.37c-77.02-13.61-1106.89-235.47-1240.79-372.729-35.97-36.86 53.53-57.582 93.49-50.071l1147.3 215.89v206.91" transform="matrix(.13333 0 0 -.13333 0 1200)"/>
    <path style="fill:#69698e;fill-opacity:1;fill-rule:nonzero;stroke:none" d="M5170.8 1289.37v-107.41c-171.94-28.12-1081.9-180.65-1231.27-277.249-8.96-5.77-10.08-14.211-8.53-20.422-10.77 8.422-13.65 19.371-.98 32.332 133.89 137.269 1163.79 359.139 1240.78 372.749" transform="matrix(.13333 0 0 -.13333 0 1200)"/>
    <path style="fill:#69698e;fill-opacity:1;fill-rule:nonzero;stroke:none" d="M5170.01 1289.37v-22.74c-74.34-13.16-1059.31-221.66-1247.56-359.56 1.33 3.032 3.57 6.219 6.79 9.551 133.89 137.269 1163.79 359.139 1240.77 372.749" transform="matrix(.13333 0 0 -.13333 0 1200)"/>
    <path style="fill:#44283e;fill-opacity:1;fill-rule:nonzero;stroke:none" d="M6458.8 757.27h94.19v136.601h-94.19V757.27" transform="matrix(.13333 0 0 -.13333 0 1200)"/>
    <path style="fill:#49363e;fill-opacity:1;fill-rule:nonzero;stroke:none" d="M6517.55 757.27h35.44v136.601h-35.44V757.27" transform="matrix(.13333 0 0 -.13333 0 1200)"/>
    <path style="fill:#2d2d3f;fill-opacity:1;fill-rule:nonzero;stroke:none" d="M6542.14 667.852c0-75.821 61.45-137.282 137.26-137.282 75.82 0 137.29 61.461 137.29 137.282 0 75.808-61.47 137.269-137.29 137.269-75.81 0-137.26-61.461-137.26-137.269" transform="matrix(.13333 0 0 -.13333 0 1200)"/>
    <path style="fill:#1d1d28;fill-opacity:1;fill-rule:nonzero;stroke:none" d="M6610.77 667.852c0-37.911 30.74-68.653 68.63-68.653 37.91 0 68.66 30.742 68.66 68.653 0 37.898-30.75 68.628-68.66 68.628-37.89 0-68.63-30.73-68.63-68.628" transform="matrix(.13333 0 0 -.13333 0 1200)"/>
    <path style="fill:#69698e;fill-opacity:1;fill-rule:nonzero;stroke:none" d="M6441.75 713.652h397.67c-4.33 70.629-91.65 126.996-198.8 126.996-14.98 0-29.53-1.089-43.58-3.187-86.39-12.801-151.55-63.031-155.29-123.809" transform="matrix(.13333 0 0 -.13333 0 1200)"/>
    <path style="fill:#44283e;fill-opacity:1;fill-rule:nonzero;stroke:none" d="M6441.75 713.652h310.59c-3.79 60.778-68.95 111.008-155.3 123.809-86.39-12.801-151.55-63.031-155.29-123.809M5392.24 1289.37c77.01-13.61 1106.9-235.47 1240.79-372.729 35.96-36.86-53.53-57.582-93.5-50.071l-1147.29 215.89v206.91" transform="matrix(.13333 0 0 -.13333 0 1200)"/>
    <path style="fill:#69698e;fill-opacity:1;fill-rule:nonzero;stroke:none" d="m5392.25 1289.37-.01-107.41c171.94-28.12 1081.91-180.65 1231.27-277.249 8.96-5.77 10.07-14.211 8.51-20.422 10.77 8.422 13.65 19.371 1 32.332-133.88 137.269-1163.79 359.139-1240.77 372.749" transform="matrix(.13333 0 0 -.13333 0 1200)"/>
    <path style="fill:#69698e;fill-opacity:1;fill-rule:nonzero;stroke:none" d="M5393.03 1289.37v-22.74c74.32-13.16 1059.3-221.66 1247.55-359.56-1.32 3.032-3.56 6.219-6.78 9.551-133.88 137.269-1163.79 359.139-1240.77 372.749" transform="matrix(.13333 0 0 -.13333 0 1200)"/>
    <path style="fill:#553d57;fill-opacity:1;fill-rule:nonzero;stroke:none" d="M6382.78 3842.63c-42.05 25.7-130.35 30.33-178.22 30.33h-846.75c28.51-74.34 51.63-151.14 75.69-227.45h791.9l1.02-.26h.04l.42-.27.11-.07c2.39-1.9 4.86-3.94 6.67-5.77l.08-.11.53-.8c1.75-2.68 3.34-5.46 4.85-8.3l.04-.08c1.83-5.65 3.38-11.32 4.67-17.13v-.03c.97-18.24.3-36.66.3-54.86v-746.42c0-61.98 51.74-113.73 113.72-113.73 9.21 0 18.15 1.13 26.76 3.34 49.43 12.24 86.96 57.61 86.96 110.39v787.9c0 97.5-4.56 191.77-88.79 243.32" transform="matrix(.13333 0 0 -.13333 0 1200)"/>
    <path style="fill:#553d57;fill-opacity:1;fill-rule:nonzero;stroke:none" d="M6228.09 3646.27c-.83 1.02-1.25 1.56-1.36 1.75.11-.04.72-.76 1.54-1.79l-.18.04M6228.77 3645.4l-.03.08.18-.04.11-.15-.26.11M6231.12 3642.56l-1.36 1.69.19-.06 1.24-1.67-.07.04" transform="matrix(.13333 0 0 -.13333 0 1200)"/>
    <path style="fill:#44283e;fill-opacity:1;fill-rule:nonzero;stroke:none" d="M6311.48 3759.23c-41.99 25.7-142.64 30.33-190.55 30.33h-733.34c15.98-47.72 30.76-95.99 45.91-144.05h791.9l1.02-.26h.04l.42-.27.11-.07c2.39-1.9 4.86-3.94 6.67-5.77l.08-.11.53-.8c1.75-2.68 3.34-5.46 4.85-8.3l.04-.08c1.83-5.65 3.38-11.32 4.67-17.13v-.03c.97-18.24.3-36.66.3-54.86v-746.42c0-61.98 51.74-113.73 113.72-113.73 9.21 0 18.15 1.13 26.76 3.34 2.24 8.68 3.37 17.69 3.37 26.98v787.9c0 97.51 7.78 191.78-76.5 243.33" transform="matrix(.13333 0 0 -.13333 0 1200)"/>
    <path style="fill:#717199;fill-opacity:1;fill-rule:nonzero;stroke:none" d="M6273.58 3805.67c95.93-1.39 139.54-89.14 137.42-175.32-.46-18.35 27.97-18.3 28.41 0 1.27 51.46-9.88 105.28-43 146.05-30.58 37.61-74.69 57-122.83 57.7-18.35.27-18.33-28.16 0-28.43" transform="matrix(.13333 0 0 -.13333 0 1200)"/>
    <path style="fill:#00b8d6;fill-opacity:1;fill-rule:nonzero;stroke:none" d="M3749.41 5622.03c.21-87.51 71.3-158.28 158.8-158.09l708.86 1.62c87.51.2 158.28 71.3 158.09 158.8l-.58 253.57c-.2 87.5-71.31 158.28-158.81 158.08l-708.86-1.61c-87.5-.2-158.27-71.29-158.07-158.81l.57-253.56" transform="matrix(.13333 0 0 -.13333 0 1200)"/>
    <path style="fill:#e0d3c7;fill-opacity:1;fill-rule:nonzero;stroke:none" d="M3778.36 5530.97c-16.07 22.72-26.32 49.86-28.54 79.24h.05c2.24-29.38 12.49-56.52 28.56-79.23h-.01c-.02-.01-.04-.01-.06-.01" transform="matrix(.13333 0 0 -.13333 0 1200)"/>
    <path style="fill:#009bb7;fill-opacity:1;fill-rule:nonzero;stroke:none" d="M3778.43 5530.98c-16.07 22.71-26.32 49.85-28.56 79.23 3.04-.19 6.09-.3 9.16-.3h.89l708.86 1.6c87.51.21 158.29 71.31 158.08 158.82l-.58 253.55c-.02 3.98-.17 7.92-.49 11.83 82.81-5.01 148.53-73.66 148.72-157.78l.57-253.56c.06-26.85-6.56-52.16-18.3-74.35h-.03c-107.26 6.96-242 9.62-373.43 9.62-214.77 0-420.7-7.1-483.37-14.14-41.6-4.68-83.17-9.62-121.52-14.52" transform="matrix(.13333 0 0 -.13333 0 1200)"/>
    <path style="fill:#00b8d6;fill-opacity:1;fill-rule:nonzero;stroke:none" d="M5636.33 3172.36c-4.94-110.23 2.72-255.37-27.92-371.04-3.99-15.04-8.59-29.56-13.98-43.46-.3-.92-.68-1.84-1.05-2.76-2.26-5.78-55.89-311.27-58.49-316.79-253.41-3.14-592.21-9.17-900.25-11.8-173.87-1.47-337.94-1.85-471.32 0-191.79 2.63-320.21 9.92-323.28 25.15-79.29 0-147.57 70.17-154.94 161.97l-10.47 130.67-3.22 40.36-203.08 2531c-.71 8.72-.84 17.3-.42 25.76 4.05 84.69 62.04 154.06 138.32 160.17 17.67 7.54 86.87 18.42 172.19 29.39 38.35 4.9 79.92 9.84 121.53 14.52 101.02 11.35 574.26 22.86 856.8 4.52h.09c50.28-3.22 94.53-7.45 129.57-12.76 240.97-36.51 352.84-174.58 394.16-418.39 1.37-8.38 2.84-16.75 4.26-25.17 12.48-72.93 25.17-145.82 38.06-218.78 5.53-31.11 11.05-62.22 16.62-93.36 24.24-134.98 49.23-270.24 74.85-405.92 4.11-21.94 8.3-43.87 12.44-65.85 1.72-8.96 3.51-18.01 5.4-27.01 51.62-248.3 162.23-493.79 187.98-744.6 4.63-45.59 8.91-91.65 12.05-137.91 5.19-75.73 7.45-152.05 4.1-227.91" transform="matrix(.13333 0 0 -.13333 0 1200)"/>
    <path style="fill:#009bb7;fill-opacity:1;fill-rule:nonzero;stroke:none" d="M4452.81 2663.07c-375.67 0-751.49 74.91-778.18 81.23l-3.22 40.36-149.32 1860.94-1.18 14.79-2.59 32.24-1.17 14.52-3.55 44.33-1.19 14.79-3.62 45.14-1.18 14.74-26.25 327.07-13.03 162.44c-.44 5.45-.66 10.84-.66 16.19 0 3.21.08 6.39.24 9.57 27.67 7.61 55.64 16.03 83.48 24.48 67.95 20.73 135.26 41.87 196.97 53.09 13.82 2.55 27.38 4.56 40.57 5.99 68.82 7.35 136.9 10.15 204.54 10.15 141.77 0 281.74-12.27 423.51-20.57 182.95-10.72 400.06-8.42 550.23-128.07 152.68-121.66 153.1-339.4 177.63-512.55 56.35-397.43 101.57-818.08 101.15-1230.28-.22-183.66 29.8-436.52-37.68-602.94-22.95-56.55-62.26-102.44-113.75-139.4-147.4-105.78-394.58-138.25-641.75-138.25" transform="matrix(.13333 0 0 -.13333 0 1200)"/>
    <path style="fill:#00b8d6;fill-opacity:1;fill-rule:nonzero;stroke:none" d="M6793.34 2630.89v-34.04c0-70.8-72.22-131.54-175.03-157.25-33.78-8.41-70.79-13.1-109.69-13.1h-2345.3c-191.79 2.64-320.21 9.93-323.28 25.16-79.29 0-147.57 70.17-154.94 161.97l-10.47 130.67-3.22 40.36c37.22 10.66 78.87 16.66 122.92 16.66h2714.29c157.25 0 284.72-76.28 284.72-170.43" transform="matrix(.13333 0 0 -.13333 0 1200)"/>
    <path style="fill:#ff2e2e;fill-opacity:1;fill-rule:nonzero;stroke:none" d="M7977.3 4363.02c0-9.52-.24-18.95-.72-28.27l-.04-.87-.03-.44-.03-.47c-.11-2.33-.24-4.63-.41-6.93-3.51-53.41-14.57-103.43-31.54-147.61-12.41-32.37-28.02-61.6-46.13-86.71-18.86-26.16-40.45-47.85-64.07-64h-199.35c-21.82 14.92-41.91 34.57-59.71 58.09-51.03 67.39-83.26 166.6-83.26 277.21 0 29.36 2.28 57.91 6.56 85.28h472.15c3.36-21.44 5.48-43.6 6.25-66.3.22-6.3.33-12.62.33-18.98" transform="matrix(.13333 0 0 -.13333 0 1200)"/>
    <path style="fill:#ff2e2e;fill-opacity:1;fill-rule:nonzero;stroke:none" d="M7976.26 4336.32c-.75 3.06.41-5.34.27-2.17-.12 3.16-.97-5.23-.34-2.05 1.06 5.31-1.85-3.01.31.91l1.56 2.38c2.11 3.09-2.92-3.54-.38-.57 1.75 2.07 3.75 3.95 5.77 5.78.94.85 1.94 1.67 2.93 2.48 3.53 2.93-3.29-2.45.5.4 2.33 1.73 4.75 3.36 7.18 4.96 5.81 3.81 11.9 7.18 18.04 10.4 6.09 3.18 12.34 6.06 18.66 8.78-3.63-1.58 1.68.66 1.97.78 1.63.65 3.25 1.28 4.88 1.9 3.76 1.44 7.57 2.78 11.38 4.06 6.26 2.1 12.61 3.92 19.02 5.5 2.98.74 5.97 1.37 8.97 1.95 1.44.27 2.87.51 4.31.75 3.49.56-3.64-.36 1.84.22 13.89 1.47 23.3-.45 36.44-5.19 5.68-2.05-3.02 1.48 2.37-.99 1.66-.75 3.26-1.62 4.86-2.47 3.12-1.67 6.07-3.64 8.94-5.7-3.09 2.21 1.35-1.19 1.6-1.42 1.29-1.11 2.52-2.31 3.73-3.51 1.22-1.2 2.34-2.46 3.45-3.74 1.38-1.67 1.46-1.72.27-.15.67-.9 1.32-1.81 1.95-2.74 1.93-2.76 3.58-5.71 5.12-8.71.2-.39 2.39-5.47.85-1.71.65-1.59 1.19-3.21 1.72-4.83 1.08-3.3 1.84-6.69 2.48-10.1 1.07-5.65-.32 3.75.28-2.04.24-2.4.31-4.82.35-7.23.26-13.4-4.63-30.07-10.25-41.97-13.41-28.38-36.11-46.18-64.43-60.88-14.62-7.58-26.98-12.24-43.64-17.66-15.7-5.12-31.72-9.25-47.79-13-22.38-5.23-45.98-8.44-67.42-16.91-13.13-5.2-24.61-12.04-32.79-23.86-8.98-12.97-6.85-29.53-.97-43.13 12.1-27.99 41.45-34.75 67.88-23.32 10.31 4.47 20.01 14.69 22.25 25.89 3.25 16.39-5.91 29.12-18.87 38.06-8.42 5.8-20.78 1.59-25.65-6.73-5.46-9.32-1.67-19.87 6.72-25.65 4.55-3.14-2.4 2.29 1.2-1.02 3.38-3.11-1.92 3.21.36-.23 2.23-3.35-1.23 4.06-.16.46-1.31 4.43-.24 3.23-.32 1.05.22 5.71-.89-.11 1.26 4.79-.51-1.18-2.69-4.05.71.35l-2.25-2.38c-2.19-2.08 3.5 2.22-.91-.5-1.04-.65-2.16-1.18-3.27-1.7 4.64 2.2.84.46-.27.12-1.23-.4-2.5-.66-3.76-.91-4.45-.93 4.32.34-.2.05-1.31-.08-2.62-.02-3.93.05-4.5.23 4.25-.85-.14.13-1.06.23-5.07 1.84-.41-.19-1.11.48-5.64 3.74-1.74.61-1.07.86-1.98 1.89-2.9 2.93 2.99-3.38.19.23-.28 1.11-.82 1.5-1.6 2.98-2.32 4.51 1.85-3.91.04.37-.19 1.14-.35 1.08-1.12 5.66-.38.17-.16 1.19-.15 2.4-.14 3.59.04 4.13-.92-4.47-.07-.55 1.07 4.93-1.35-2.22.03.53.48.96 1.09 1.85 1.71 2.73-3.01-4.35-1-1.42-.05-.44l2.57 2.31c-4.02-3.38-.89-.77.1-.12 2.13 1.41 4.41 2.59 6.7 3.71.85.41 5.06 2.18.46.27 1.71.72 3.46 1.34 5.22 1.96 22.38 7.89 46.7 11.19 69.75 16.75 33.17 7.99 66.07 18.46 96.31 34.48 29.86 15.81 56.63 38.93 72.65 69.02 16.04 30.13 23.5 67.59 10.32 100.13-13.05 32.26-41.66 53.85-75.62 60.36-27.95 5.36-55.39-1.11-81.72-10.68-21.97-7.98-43.99-18-62.95-31.83-15.7-11.46-33.16-28-27.85-49.5 5.8-23.47 41.95-13.52 36.16 9.97" transform="matrix(.13333 0 0 -.13333 0 1200)"/>
    <path style="fill:#f55;fill-opacity:1;fill-rule:nonzero;stroke:none" d="M7836.11 4401.25c0-178.67-95.46-323.53-213.23-323.53-16.36 0-32.3 2.8-47.61 8.09-51.03 67.39-83.26 166.6-83.26 277.21 0 29.36 2.28 57.91 6.56 85.28h335.3c1.48-15.36 2.24-31.06 2.24-47.05" transform="matrix(.13333 0 0 -.13333 0 1200)"/>
    <path style="fill:#ff8b60;fill-opacity:1;fill-rule:nonzero;stroke:none" d="M7608.1 4139.33c-7.56 0-14.69 4.28-19.45 10.93-9.75 13.6-17.37 28.77-24.08 44.06-8.79 20.04-16.57 40.51-22.53 61.59-11.27 39.86-19.83 85.2-8.55 126.04 2.67 9.69 11.74 16.18 21.42 16.18 1.89 0 3.81-.25 5.71-.77 11.58-3.18 18.61-15.55 15.42-27.13-.95-3.41-1.76-6.85-2.36-10.34-.05-.62-.51-4.15-.56-4.94-.14-1.76-.28-3.52-.36-5.26-.4-9.34-.11-18.69.8-27.99.21-2.1.42-4.2.67-6.31-.01.11-.01.16-.01.16.02 0 .73-5.04.84-5.72.77-4.69 1.61-9.37 2.58-14.03 2.11-10.15 4.6-20.21 7.52-30.16 2.88-9.83 6.03-19.57 9.59-29.17 1.81-4.93 3.69-9.84 5.69-14.69.4-.96.64-1.53.71-1.72.25-.59.51-1.18.76-1.77.75-1.69 1.49-3.39 2.26-5.07 6.42-14.11 13.53-28.07 22.58-40.7 7.02-9.8 1.72-24.53-7.92-30.17-3.54-2.08-7.18-3.02-10.73-3.02M7574.35 4314.46" transform="matrix(.13333 0 0 -.13333 0 1200)"/>
</svg>
